<?xml version="1.0" encoding="utf-8"?>
<!-- Generator: Adobe Illustrator 15.0.0, SVG Export Plug-In . SVG Version: 6.00 Build 0)  -->
<!DOCTYPE svg PUBLIC "-//W3C//DTD SVG 1.1//EN" "http://www.w3.org/Graphics/SVG/1.1/DTD/svg11.dtd">
<svg version="1.1" id="SVG" xmlns="http://www.w3.org/2000/svg" xmlns:xlink="http://www.w3.org/1999/xlink" x="0px" y="0px"
	 width="443.635px" height="320.379px" viewBox="21.519 240.62 443.635 320.379"
	 enable-background="new 21.519 240.62 443.635 320.379" xml:space="preserve">
<g transform="translate(378.3214807039988,231.39035212799914)scale(0.3019898880000016)">
	<line fill="none" stroke="#000000" x1="104.54" y1="979.047" x2="89.749" y2="990.811">
	<title>A G</title>
	</line>
	<line fill="none" stroke="#000000" x1="-704.475" y1="543.148" x2="-736.696" y2="473.3">
	<title>T A</title>
	</line>
	<line fill="none" stroke="#000000" x1="-40.138" y1="52.394" x2="-11.584" y2="78.662">
	<title>A G</title>
	</line>
	<line fill="none" stroke="#000000" x1="64.836" y1="193.221" x2="105.983" y2="331.348">
	<title>C T</title>
	</line>
	<line fill="none" stroke="#000000" x1="17.458" y1="357.249" x2="-20.81" y2="296.085">
	<title>G A</title>
	</line>
	<line fill="none" stroke="#000000" x1="-75.224" y1="554.755" x2="11.259" y2="538.751">
	<title>T C</title>
	</line>
	<line fill="none" stroke="#000000" x1="64.836" y1="193.221" x2="-50.04" y2="134.04">
	<title>A C</title>
	</line>
	<line fill="none" stroke="#000000" x1="-164.408" y1="427.788" x2="-234.358" y2="404.384">
	<title>A G</title>
	</line>
	<line fill="none" stroke="#000000" x1="11.036" y1="40.187" x2="26.322" y2="70.479">
	<title>A G</title>
	</line>
	<line fill="none" stroke="#000000" x1="-704.475" y1="543.148" x2="-729.934" y2="618.024">
	<title>T C</title>
	</line>
	<line fill="none" stroke="#000000" x1="17.458" y1="357.249" x2="106.985" y2="317.221">
	<title>A G</title>
	</line>
	<line fill="none" stroke="#000000" x1="139.756" y1="776.077" x2="114.238" y2="755.293">
	<title>T C</title>
	</line>
	<line fill="none" stroke="#000000" x1="-75.224" y1="554.755" x2="-20.386" y2="524.777">
	<title>G A</title>
	</line>
	<line fill="none" stroke="#000000" x1="-543.07" y1="958.409" x2="-529.661" y2="993.233">
	<title>T C</title>
	</line>
	<line fill="none" stroke="#000000" x1="140.907" y1="954.777" x2="125.463" y2="957.84">
	<title>A C</title>
	</line>
	<line fill="none" stroke="#000000" x1="-704.475" y1="543.148" x2="-707.435" y2="622.053">
	<title>T C</title>
	</line>
	<line fill="none" stroke="#000000" x1="103.667" y1="388.333" x2="105.983" y2="331.348">
	<title>G A</title>
	</line>
	<line fill="none" stroke="#000000" x1="-2.177" y1="647.852" x2="-122.411" y2="579.312">
	<title>A G</title>
	</line>
	<line fill="none" stroke="#000000" x1="103.531" y1="577.362" x2="11.259" y2="538.751">
	<title>A G</title>
	</line>
	<line fill="none" stroke="#000000" x1="-476.619" y1="320.503" x2="-459.225" y2="255.516">
	<title>G A</title>
	</line>
	<line fill="none" stroke="#000000" x1="-354.98" y1="982.216" x2="-264.022" y2="977.773">
	<title>A G</title>
	</line>
	<line fill="none" stroke="#000000" x1="44.871" y1="508.459" x2="-20.386" y2="524.777">
	<title>T C</title>
	</line>
	<line fill="none" stroke="#000000" x1="64.836" y1="193.221" x2="26.322" y2="70.479">
	<title>G A</title>
	</line>
	<line fill="none" stroke="#000000" x1="-590.452" y1="248.072" x2="-548.491" y2="275.709">
	<title>A G</title>
	</line>
	<line fill="none" stroke="#000000" x1="-164.408" y1="427.788" x2="-141.985" y2="396.068">
	<title>T C</title>
	</line>
	<line fill="none" stroke="#000000" x1="-83.16" y1="478.705" x2="-164.408" y2="427.788">
	<title>A C</title>
	</line>
	<line fill="none" stroke="#000000" x1="-2.177" y1="647.852" x2="103.531" y2="577.362">
	<title>T C</title>
	</line>
	<line fill="none" stroke="#000000" x1="218.168" y1="397.609" x2="192.961" y2="342.905">
	<title>A G</title>
	</line>
	<line fill="none" stroke="#000000" x1="-531.314" y1="850.253" x2="-538.379" y2="754.249">
	<title>G A</title>
	</line>
	<line fill="none" stroke="#000000" x1="-704.475" y1="543.148" x2="-707.806" y2="466.86">
	<title>A G</title>
	</line>
	<line fill="none" stroke="#000000" x1="-465.518" y1="1080.121" x2="-433.049" y2="1087.016">
	<title>C T</title>
	</line>
	<line fill="none" stroke="#000000" x1="125.463" y1="957.84" x2="115.645" y2="966.988">
	<title>A G</title>
	</line>
	<line fill="none" stroke="#000000" x1="-20.386" y1="524.777" x2="-19.827" y2="485.671">
	<title>G A</title>
	</line>
	<line fill="none" stroke="#000000" x1="149.134" y1="302.055" x2="192.961" y2="342.905">
	<title>A G</title>
	</line>
	<line fill="none" stroke="#000000" x1="-355.74" y1="341.963" x2="-296.428" y2="441.355">
	<title>G A</title>
	</line>
	<line fill="none" stroke="#000000" x1="-83.16" y1="478.705" x2="-19.827" y2="485.671">
	<title>A G</title>
	</line>
	<line fill="none" stroke="#000000" x1="-424.001" y1="266.393" x2="-459.225" y2="255.516">
	<title>T C</title>
	</line>
	<line fill="none" stroke="#000000" x1="-465.518" y1="1080.121" x2="-494.704" y2="1059.066">
	<title>A G</title>
	</line>
	<line fill="none" stroke="#000000" x1="103.531" y1="577.362" x2="172.986" y2="595.995">
	<title>A G</title>
	</line>
	<line fill="none" stroke="#000000" x1="-354.98" y1="982.216" x2="-267.851" y2="1007.581">
	<title>A G</title>
	</line>
	<line fill="none" stroke="#000000" x1="-81.679" y1="397.868" x2="-141.985" y2="396.068">
	<title>A C</title>
	</line>
	<line fill="none" stroke="#000000" x1="62.902" y1="825.091" x2="76.232" y2="858.968">
	<title>C T</title>
	</line>
	<line fill="none" stroke="#000000" x1="-2.177" y1="647.852" x2="39.073" y2="762.864">
	<title>A C</title>
	</line>
	<line fill="none" stroke="#000000" x1="-335.771" y1="262.254" x2="-309.369" y2="338.215">
	<title>A G</title>
	</line>
	<line fill="none" stroke="#000000" x1="-602.579" y1="718.37" x2="-593.751" y2="737.285">
	<title>G A</title>
	</line>
	<line fill="none" stroke="#000000" x1="8.74" y1="464.503" x2="11.259" y2="538.751">
	<title>A G</title>
	</line>
	<line fill="none" stroke="#000000" x1="-296.428" y1="441.355" x2="-402.621" y2="397.035">
	<title>T C</title>
	</line>
	<line fill="none" stroke="#000000" x1="-151.043" y1="749.366" x2="-147.605" y2="829.33">
	<title>T C</title>
	</line>
	<line fill="none" stroke="#000000" x1="39.073" y1="762.864" x2="62.902" y2="825.091">
	<title>A G</title>
	</line>
	<line fill="none" stroke="#000000" x1="-722.915" y1="641.649" x2="-707.435" y2="622.053">
	<title>C T</title>
	</line>
	<line fill="none" stroke="#000000" x1="-355.74" y1="341.963" x2="-371.43" y2="247.302">
	<title>G A</title>
	</line>
	<line fill="none" stroke="#000000" x1="44.871" y1="508.459" x2="87" y2="520.157">
	<title>G A</title>
	</line>
	<line fill="none" stroke="#000000" x1="64.836" y1="193.221" x2="119.147" y2="326.25">
	<title>A G</title>
	</line>
	<line fill="none" stroke="#000000" x1="55.516" y1="435.593" x2="-19.827" y2="485.671">
	<title>T G</title>
	</line>
	<line fill="none" stroke="#000000" x1="103.531" y1="577.362" x2="132.47" y2="646.739">
	<title>C T</title>
	</line>
	<line fill="none" stroke="#000000" x1="97.892" y1="672.111" x2="132.47" y2="646.739">
	<title>T C</title>
	</line>
	<line fill="none" stroke="#000000" x1="-593.751" y1="737.285" x2="-580.716" y2="761.806">
	<title>G A</title>
	</line>
	<line fill="none" stroke="#000000" x1="-147.605" y1="829.33" x2="-131" y2="868.139">
	<title>C T</title>
	</line>
	<line fill="none" stroke="#000000" x1="-355.74" y1="341.963" x2="-424.001" y2="266.393">
	<title>G A</title>
	</line>
	<line fill="none" stroke="#000000" x1="-296.428" y1="441.355" x2="-186.808" y2="514.286">
	<title>C A</title>
	</line>
	<line fill="none" stroke="#000000" x1="-354.98" y1="982.216" x2="-425.311" y2="899.005">
	<title>T C</title>
	</line>
	<line fill="none" stroke="#000000" x1="-516.382" y1="1028.578" x2="-529.661" y2="993.233">
	<title>A G</title>
	</line>
	<line fill="none" stroke="#000000" x1="64.836" y1="193.221" x2="149.134" y2="302.055">
	<title>T G</title>
	</line>
	<line fill="none" stroke="#000000" x1="-296.428" y1="441.355" x2="-234.358" y2="404.384">
	<title>G A</title>
	</line>
	<line fill="none" stroke="#000000" x1="-83.16" y1="478.705" x2="-75.224" y2="554.755">
	<title>G A</title>
	</line>
	<line fill="none" stroke="#000000" x1="-186.808" y1="514.286" x2="-122.411" y2="579.312">
	<title>G A</title>
	</line>
	<line fill="none" stroke="#000000" x1="149.134" y1="302.055" x2="106.985" y2="317.221">
	<title>A G</title>
	</line>
	<line fill="none" stroke="#000000" x1="-151.043" y1="749.366" x2="-118.198" y2="641.779">
	<title>C A</title>
	</line>
	<line fill="none" stroke="#000000" x1="-355.74" y1="341.963" x2="-476.619" y2="320.503">
	<title>T C</title>
	</line>
	<line fill="none" stroke="#000000" x1="-476.619" y1="320.503" x2="-548.491" y2="275.709">
	<title>T C</title>
	</line>
	<line fill="none" stroke="#000000" x1="-539.534" y1="729.255" x2="-538.379" y2="754.249">
	<title>C T</title>
	</line>
	<line fill="none" stroke="#000000" x1="64.836" y1="193.221" x2="-26.766" y2="99.272">
	<title>C T</title>
	</line>
	<line fill="none" stroke="#000000" x1="103.667" y1="388.333" x2="75.333" y2="451.496">
	<title>T G</title>
	</line>
	<line fill="none" stroke="#000000" x1="-355.74" y1="341.963" x2="-253.883" y2="447.116">
	<title>C A</title>
	</line>
	<line fill="none" stroke="#000000" x1="-642.608" y1="788.394" x2="-618.816" y2="800.605">
	<title>A T</title>
	</line>
	<line fill="none" stroke="#000000" x1="8.74" y1="464.503" x2="-83.16" y2="478.705">
	<title>T C</title>
	</line>
	<line fill="none" stroke="#000000" x1="-704.475" y1="543.148" x2="-631.5" y2="558.726">
	<title>G T</title>
	</line>
	<line fill="none" stroke="#000000" x1="-476.619" y1="320.503" x2="-402.621" y2="397.035">
	<title>G A</title>
	</line>
	<line fill="none" stroke="#000000" x1="64.836" y1="193.221" x2="-11.584" y2="78.662">
	<title>C T</title>
	</line>
	<line fill="none" stroke="#000000" x1="-704.475" y1="543.148" x2="-677.392" y2="469.626">
	<title>A G</title>
	</line>
	<line fill="none" stroke="#000000" x1="-234.358" y1="404.384" x2="-270.956" y2="371.013">
	<title>A G</title>
	</line>
	<line fill="none" stroke="#000000" x1="103.667" y1="388.333" x2="55.516" y2="435.593">
	<title>T C</title>
	</line>
	<line fill="none" stroke="#000000" x1="44.871" y1="508.459" x2="11.259" y2="538.751">
	<title>G A</title>
	</line>
	<line fill="none" stroke="#000000" x1="-354.98" y1="982.216" x2="-279.237" y2="1032.317">
	<title>T C</title>
	</line>
	<line fill="none" stroke="#000000" x1="181.743" y1="515.206" x2="215.681" y2="456.848">
	<title>A G</title>
	</line>
	<line fill="none" stroke="#000000" x1="-354.98" y1="982.216" x2="-400.228" y2="1069.466">
	<title>T C</title>
	</line>
	<line fill="none" stroke="#000000" x1="-590.452" y1="248.072" x2="-629.607" y2="244.065">
	<title>G A</title>
	</line>
	<line fill="none" stroke="#000000" x1="218.168" y1="397.609" x2="215.681" y2="456.848">
	<title>A G</title>
	</line>
	<line fill="none" stroke="#000000" x1="-662.701" y1="779.275" x2="-642.608" y2="788.394">
	<title>C T</title>
	</line>
	<line fill="none" stroke="#000000" x1="-355.74" y1="341.963" x2="-270.956" y2="371.013">
	<title>G A</title>
	</line>
	<line fill="none" stroke="#000000" x1="103.531" y1="577.362" x2="87" y2="520.157">
	<title>A G</title>
	</line>
	<line fill="none" stroke="#000000" x1="-531.314" y1="850.253" x2="-524.377" y2="957.187">
	<title>T C</title>
	</line>
	<line fill="none" stroke="#000000" x1="-531.314" y1="850.253" x2="-425.311" y2="899.005">
	<title>G A</title>
	</line>
	<line fill="none" stroke="#000000" x1="-2.177" y1="647.852" x2="97.892" y2="672.111">
	<title>C T</title>
	</line>
	<line fill="none" stroke="#000000" x1="-83.16" y1="478.705" x2="-81.679" y2="397.868">
	<title>T C</title>
	</line>
	<line fill="none" stroke="#000000" x1="-2.177" y1="647.852" x2="-75.224" y2="554.755">
	<title>A G</title>
	</line>
	<line fill="none" stroke="#000000" x1="-704.475" y1="543.148" x2="-778.424" y2="513.395">
	<title>A G</title>
	</line>
	<line fill="none" stroke="#000000" x1="-83.16" y1="478.705" x2="-137.597" y2="499.712">
	<title>C T</title>
	</line>
	<line fill="none" stroke="#000000" x1="103.667" y1="388.333" x2="119.147" y2="326.25">
	<title>C T</title>
	</line>
	<line fill="none" stroke="#000000" x1="-531.314" y1="850.253" x2="-447.651" y2="928.341">
	<title>C T</title>
	</line>
	<line fill="none" stroke="#000000" x1="-516.382" y1="1028.578" x2="-494.704" y2="1059.066">
	<title>C T</title>
	</line>
	<line fill="none" stroke="#000000" x1="-296.428" y1="441.355" x2="-309.369" y2="338.215">
	<title>G A</title>
	</line>
	<line fill="none" stroke="#000000" x1="-296.428" y1="441.355" x2="-344.334" y2="498.499">
	<title>T C</title>
	</line>
	<line fill="none" stroke="#000000" x1="44.871" y1="508.459" x2="75.333" y2="451.496">
	<title>G A</title>
	</line>
	<line fill="none" stroke="#000000" x1="-524.377" y1="957.187" x2="-529.661" y2="993.233">
	<title>T C</title>
	</line>
	<line fill="none" stroke="#000000" x1="-296.428" y1="441.355" x2="-359.113" y2="478.443">
	<title>A G</title>
	</line>
	<line fill="none" stroke="#000000" x1="-2.177" y1="647.852" x2="-12.823" y2="734.714">
	<title>G A</title>
	</line>
	<line fill="none" stroke="#000000" x1="-488.893" y1="735.406" x2="-497.702" y2="759.18">
	<title>C G</title>
	</line>
	<line fill="none" stroke="#000000" x1="-531.314" y1="850.253" x2="-625.846" y2="850.473">
	<title>A G</title>
	</line>
	<line fill="none" stroke="#000000" x1="-118.198" y1="641.779" x2="-75.224" y2="554.755">
	<title>C T</title>
	</line>
	<line fill="none" stroke="#000000" x1="119.147" y1="326.25" x2="106.985" y2="317.221">
	<title>T G</title>
	</line>
	<line fill="none" stroke="#000000" x1="17.458" y1="357.249" x2="-81.679" y2="397.868">
	<title>C T</title>
	</line>
	<line fill="none" stroke="#000000" x1="-722.915" y1="641.649" x2="-729.934" y2="618.024">
	<title>C T</title>
	</line>
	<line fill="none" stroke="#000000" x1="-531.314" y1="850.253" x2="-497.702" y2="759.18">
	<title>G A</title>
	</line>
	<line fill="none" stroke="#000000" x1="-531.314" y1="850.253" x2="-618.816" y2="800.605">
	<title>G C</title>
	</line>
	<line fill="none" stroke="#000000" x1="-186.808" y1="514.286" x2="-253.883" y2="447.116">
	<title>A G</title>
	</line>
	<line fill="none" stroke="#000000" x1="17.458" y1="357.249" x2="-37.389" y2="306.458">
	<title>G A</title>
	</line>
	<line fill="none" stroke="#000000" x1="103.531" y1="577.362" x2="181.743" y2="515.206">
	<title>T C</title>
	</line>
	<line fill="none" stroke="#000000" x1="8.74" y1="464.503" x2="75.333" y2="451.496">
	<title>A G</title>
	</line>
	<line fill="none" stroke="#000000" x1="-531.314" y1="850.253" x2="-543.07" y2="958.409">
	<title>T C</title>
	</line>
	<line fill="none" stroke="#000000" x1="-147.605" y1="829.33" x2="-153.588" y2="868.614">
	<title>G A</title>
	</line>
	<line fill="none" stroke="#000000" x1="-2.177" y1="647.852" x2="78.638" y2="724.534">
	<title>C G</title>
	</line>
	<line fill="none" stroke="#000000" x1="-359.384" y1="226.255" x2="-335.771" y2="262.254">
	<title>G A</title>
	</line>
	<line fill="none" stroke="#000000" x1="114.238" y1="755.293" x2="78.638" y2="724.534">
	<title>T A</title>
	</line>
	<line fill="none" stroke="#000000" x1="-476.619" y1="320.503" x2="-542.525" y2="325.561">
	<title>G A</title>
	</line>
	<line fill="none" stroke="#000000" x1="64.836" y1="193.221" x2="-56.284" y2="150.495">
	<title>A G</title>
	</line>
	<line fill="none" stroke="#000000" x1="104.54" y1="979.047" x2="115.645" y2="966.988">
	<title>G A</title>
	</line>
	<line fill="none" stroke="#000000" x1="64.836" y1="193.221" x2="-40.649" y2="120.759">
	<title>G A</title>
	</line>
	<line fill="none" stroke="#000000" x1="-359.384" y1="226.255" x2="-371.43" y2="247.302">
	<title>A G</title>
	</line>
	<line fill="none" stroke="#000000" x1="-354.98" y1="982.216" x2="-447.651" y2="928.341">
	<title>A G</title>
	</line>
	<line fill="none" stroke="#000000" x1="-400.228" y1="1069.466" x2="-433.049" y2="1087.016">
	<title>G A</title>
	</line>
	<line fill="none" stroke="#000000" x1="-590.452" y1="248.072" x2="-609.124" y2="215.6">
	<title>A G</title>
	</line>
	<line fill="none" stroke="#000000" x1="-263.925" y1="325.928" x2="-270.956" y2="371.013">
	<title>G A</title>
	</line>
	<line fill="none" stroke="#000000" x1="-531.314" y1="850.253" x2="-580.716" y2="761.806">
	<title>C T</title>
	</line>
	<line fill="none" stroke="#000000" x1="-75.224" y1="554.755" x2="-186.808" y2="514.286">
	<title>G A</title>
	</line>
	<line fill="none" stroke="#000000" x1="-672.765" y1="446.518" x2="-677.392" y2="469.626">
	<title>A C</title>
	</line>
	<line fill="none" stroke="#000000" x1="17.458" y1="357.249" x2="8.74" y2="464.503">
	<title>C T</title>
	</line>
	<line fill="none" stroke="#000000" x1="-151.043" y1="749.366" x2="-196.057" y2="777.493">
	<title>A C</title>
	</line>
	<g id="HG00096_1" transform="translate(1081.0228693157105,-291.73383449281135)">
		<circle fill="#FFFFFF" stroke="#000000" stroke-width="2" cx="-1016.187" cy="484.955" r="98.478">
		<title>HG00096_1</title>
		</circle>
		<path fill="#FFFFFF" stroke="#000000" stroke-width="0.5" d="M-1016.187,386.477L-1016.187,386.477v98.478V386.477z"/>
		<path fill="#E74C3C" stroke="#000000" stroke-width="0.5" d="M-1016.187,386.477c54.389,0,98.478,44.089,98.478,98.478
			c0,13.905-2.946,27.653-8.641,40.339l-89.837-40.339V386.477z"/>
		<path fill="#2ECC71" stroke="#000000" stroke-width="0.5" d="M-926.35,525.294c-10.257,22.843-28.832,40.922-51.947,50.557
			l-37.89-90.896L-926.35,525.294z"/>
		<path fill="#0000FF" stroke="#000000" stroke-width="0.5" d="M-978.297,575.851c-7.519,3.134-15.396,5.323-23.451,6.516
			l-14.439-97.412L-978.297,575.851z"/>
		<path fill="#039BE5" stroke="#000000" stroke-width="0.5" d="M-1001.748,582.367c-52.772,7.822-102.177-27.799-111.426-80.339
			l96.987-17.073L-1001.748,582.367z"/>
		<path fill="#FF00CC" stroke="#000000" stroke-width="0.5" d="M-1113.174,502.027c-9.43-53.566,26.349-104.63,79.913-114.06
			c5.64-0.993,11.35-1.491,17.074-1.491v98.478L-1113.174,502.027z"/>
	</g>
	<g id="HG00099_1" transform="translate(25.097528096239106,872.0273060557694)">
		<circle fill="#FFFFFF" stroke="#000000" stroke-width="2" cx="-556.411" cy="-21.776" r="70.798">
		<title>HG00099_1</title>
		</circle>
		<path fill="#FFFFFF" stroke="#000000" stroke-width="0.5" d="M-556.411-92.575L-556.411-92.575v70.8V-92.575z"/>
		<path fill="#E74C3C" stroke="#000000" stroke-width="0.5" d="M-556.411-92.575c8.034,0,16.01,1.368,23.585,4.045l-23.585,66.754
			V-92.575z"/>
		<path fill="#2ECC71" stroke="#000000" stroke-width="0.5" d="M-532.826-88.529c30.203,10.671,49.478,40.293,46.999,72.229
			l-70.585-5.475L-532.826-88.529z"/>
		<path fill="#0000FF" stroke="#000000" stroke-width="0.5" d="M-485.826-16.3c-3.024,38.983-37.077,68.132-76.06,65.108
			c-7.242-0.559-14.355-2.234-21.086-4.957l26.56-65.626L-485.826-16.3z"/>
		<path fill="#039BE5" stroke="#000000" stroke-width="0.5" d="M-582.972,43.851c-29.207-11.823-47.087-41.521-43.866-72.863
			l70.426,7.237L-582.972,43.851z"/>
		<path fill="#FF00CC" stroke="#000000" stroke-width="0.5" d="M-626.838-29.012c3.711-36.108,34.128-63.563,70.426-63.563v70.8
			L-626.838-29.012z"/>
	</g>
	<g id="HG00107_1" transform="translate(337.42659219383125,1105.7676100405436)">
		<circle fill="#FFFFFF" stroke="#000000" stroke-width="2" cx="-692.407" cy="-123.552" r="62.806">
		<title>HG00107_1</title>
		</circle>
		<path fill="#FFFFFF" stroke="#000000" stroke-width="0.5" d="M-692.407-186.358L-692.407-186.358v62.806V-186.358z"/>
		<path fill="#E74C3C" stroke="#000000" stroke-width="0.5" d="M-692.407-186.358c2.391,0,4.783,0.136,7.16,0.411l-7.16,62.395
			V-186.358z"/>
		<path fill="#2ECC71" stroke="#000000" stroke-width="0.5" d="M-685.247-185.947c14.125,1.62,27.283,7.984,37.321,18.054
			l-44.48,44.341L-685.247-185.947z"/>
		<path fill="#0000FF" stroke="#000000" stroke-width="0.5" d="M-647.926-167.893c24.488,24.567,24.425,64.332-0.141,88.822
			c-13.444,13.401-32.229,20.004-51.103,17.96l6.763-62.441L-647.926-167.893z"/>
		<path fill="#039BE5" stroke="#000000" stroke-width="0.5" d="M-699.17-61.111c-34.485-3.735-59.412-34.721-55.677-69.206
			c0.409-3.767,1.156-7.489,2.236-11.121l60.204,17.886L-699.17-61.111z"/>
		<path fill="#FF00CC" stroke="#000000" stroke-width="0.5" d="M-752.611-141.438c7.916-26.646,32.407-44.92,60.204-44.92v62.806
			L-752.611-141.438z"/>
	</g>
	<g id="HG00128_1" transform="translate(962.3262449856547,513.5279894608408)">
		<circle fill="#FFFFFF" stroke="#000000" stroke-width="2" cx="-964.503" cy="134.324" r="58.127">
		<title>HG00128_1</title>
		</circle>
		<path fill="#FFFFFF" stroke="#000000" stroke-width="0.5" d="M-964.503,76.197L-964.503,76.197v58.127V76.197z"/>
		<path fill="#E74C3C" stroke="#000000" stroke-width="0.5" d="M-964.503,76.197c19.031,0,36.858,9.317,47.724,24.942
			l-47.724,33.185V76.197z"/>
		<path fill="#2ECC71" stroke="#000000" stroke-width="0.5" d="M-916.78,101.139c8.97,12.903,12.337,28.89,9.326,44.312
			l-57.05-11.127L-916.78,101.139z"/>
		<path fill="#0000FF" stroke="#000000" stroke-width="0.5" d="M-907.453,145.451c-6.144,31.51-36.671,52.07-68.177,45.923
			c-31.51-6.144-52.07-36.671-45.923-68.181c1.045-5.362,2.843-10.552,5.336-15.412l51.714,26.543L-907.453,145.451z"/>
		<path fill="#039BE5" stroke="#000000" stroke-width="0.5" d="M-1016.218,107.781c7.586-14.781,21.136-25.608,37.224-29.75
			l14.49,56.293L-1016.218,107.781z"/>
		<path fill="#FF00CC" stroke="#000000" stroke-width="0.5" d="M-978.994,78.03c4.734-1.216,9.604-1.834,14.49-1.834v58.127
			L-978.994,78.03z"/>
	</g>
	<g id="HG00099_2" transform="translate(336.081625854386,-28.274726957766923)">
		<circle fill="#FFFFFF" stroke="#000000" stroke-width="2" cx="-691.822" cy="370.237" r="56.387">
		<title>HG00099_2</title>
		</circle>
		<path fill="#FFFFFF" stroke="#000000" stroke-width="0.5" d="M-691.822,313.85L-691.822,313.85v56.387V313.85z"/>
		<path fill="#E74C3C" stroke="#000000" stroke-width="0.5" d="M-691.822,313.85c11.03,0,21.817,3.235,31.026,9.303l-31.026,47.084
			V313.85z"/>
		<path fill="#2ECC71" stroke="#000000" stroke-width="0.5" d="M-660.795,323.154c12.777,8.419,21.584,21.669,24.399,36.71
			l-55.425,10.374L-660.795,323.154z"/>
		<path fill="#0000FF" stroke="#000000" stroke-width="0.5" d="M-636.397,359.863c4.809,25.695-8.673,51.328-32.57,61.922
			l-22.855-51.548L-636.397,359.863z"/>
		<path fill="#039BE5" stroke="#000000" stroke-width="0.5" d="M-668.967,421.785c-28.47,12.623-61.781-0.225-74.402-28.693
			c-1.471-3.318-2.618-6.77-3.425-10.308l54.972-12.547L-668.967,421.785z"/>
		<path fill="#FF00CC" stroke="#000000" stroke-width="0.5" d="M-746.794,382.784c-6.93-30.36,12.065-60.591,42.425-67.519
			c4.117-0.939,8.325-1.415,12.547-1.415v56.387L-746.794,382.784z"/>
	</g>
	<g id="HG00097_1" transform="translate(-281.61167549037947,328.0715187346908)">
		<circle fill="#FFFFFF" stroke="#000000" stroke-width="2" cx="-422.863" cy="215.075" r="53.411">
		<title>HG00097_1</title>
		</circle>
		<path fill="#FFFFFF" stroke="#000000" stroke-width="0.5" d="M-422.863,161.664L-422.863,161.664v53.412V161.664z"/>
		<path fill="#E74C3C" stroke="#000000" stroke-width="0.5" d="M-422.863,161.664c27.147,0,49.974,20.363,53.064,47.331
			l-53.064,6.081V161.664z"/>
		<path fill="#2ECC71" stroke="#000000" stroke-width="0.5" d="M-369.799,208.995c3.358,29.307-17.677,55.786-46.983,59.145
			c-16.266,1.863-32.488-3.835-44.013-15.464l37.932-37.601L-369.799,208.995z"/>
		<path fill="#0000FF" stroke="#000000" stroke-width="0.5" d="M-460.795,252.677c-7.31-7.373-12.313-16.722-14.395-26.895
			l52.327-10.705L-460.795,252.677z"/>
		<path fill="#039BE5" stroke="#000000" stroke-width="0.5" d="M-475.19,225.781c-4.597-22.465,5.661-45.358,25.487-56.883
			l26.84,46.178L-475.19,225.781z"/>
		<path fill="#FF00CC" stroke="#000000" stroke-width="0.5" d="M-449.703,168.898c8.152-4.737,17.412-7.234,26.84-7.234v53.412
			L-449.703,168.898z"/>
	</g>
	<g id="HG01066_2" transform="translate(997.1057659189269,-1.2001179280249628)">
		<circle fill="#FFFFFF" stroke="#000000" stroke-width="2" cx="-979.648" cy="358.448" r="43.09">
		<title>HG01066_2</title>
		</circle>
		<path fill="#FFFFFF" stroke="#000000" stroke-width="0.5" d="M-979.648,315.359L-979.648,315.359v43.09V315.359z"/>
		<path fill="#E74C3C" stroke="#000000" stroke-width="0.5" d="M-979.648,315.359c23.797,0,43.09,19.293,43.09,43.09
			s-19.293,43.09-43.09,43.09c-23.797,0-43.09-19.293-43.09-43.09c0-17.242,10.28-32.826,26.132-39.612l16.958,39.612V315.359z"/>
		<path fill="#2ECC71" stroke="#000000" stroke-width="0.5" d="M-996.605,318.837c4.64-1.987,9.595-3.143,14.636-3.415l2.322,43.027
			L-996.605,318.837z"/>
		<path fill="#039BE5" stroke="#000000" stroke-width="0.5" d="M-981.969,315.422c0.773-0.042,1.546-0.063,2.322-0.063v43.09
			L-981.969,315.422z"/>
	</g>
	<g id="HG00102_2" transform="translate(441.1357452817466,147.7726592148619)">
		<circle fill="#FFFFFF" stroke="#000000" stroke-width="2" cx="-737.564" cy="293.583" r="40.318">
		<title>HG00102_2</title>
		</circle>
		<path fill="#FFFFFF" stroke="#000000" stroke-width="0.5" d="M-737.564,253.264L-737.564,253.264v40.318V253.264z"/>
		<path fill="#E74C3C" stroke="#000000" stroke-width="0.5" d="M-737.564,253.264c2.485,0,4.965,0.23,7.409,0.686l-7.409,39.633
			V253.264z"/>
		<path fill="#2ECC71" stroke="#000000" stroke-width="0.5" d="M-730.155,253.95c3.258,0.61,6.43,1.619,9.443,3.004l-16.851,36.629
			L-730.155,253.95z"/>
		<path fill="#0000FF" stroke="#000000" stroke-width="0.5" d="M-720.713,256.954c20.229,9.307,29.083,33.251,19.776,53.48
			c-3.665,7.966-9.827,14.521-17.553,18.67l-19.074-35.521L-720.713,256.954z"/>
		<path fill="#039BE5" stroke="#000000" stroke-width="0.5" d="M-718.49,329.104c-19.618,10.534-44.062,3.171-54.596-16.447
			l35.521-19.074L-718.49,329.104z"/>
		<path fill="#FF00CC" stroke="#000000" stroke-width="0.5" d="M-773.085,312.657c-10.536-19.618-3.172-44.062,16.447-54.596
			c5.864-3.15,12.418-4.797,19.074-4.797v40.318L-773.085,312.657z"/>
	</g>
	<g id="HG00100_1" transform="translate(121.97545333804227,-66.28532894994902)">
		<circle fill="#FFFFFF" stroke="#000000" stroke-width="2" cx="-598.595" cy="386.789" r="38.291">
		<title>HG00100_1</title>
		</circle>
		<path fill="#FFFFFF" stroke="#000000" stroke-width="0.5" d="M-598.595,348.498L-598.595,348.498v38.291V348.498z"/>
		<path fill="#E74C3C" stroke="#000000" stroke-width="0.5" d="M-598.595,348.498c21.149,0,38.293,17.142,38.293,38.291
			c0,4.369-0.749,8.705-2.212,12.823l-36.081-12.823V348.498z"/>
		<path fill="#2ECC71" stroke="#000000" stroke-width="0.5" d="M-562.514,399.612c-3.858,10.856-12.4,19.398-23.257,23.257
			l-12.823-36.081L-562.514,399.612z"/>
		<path fill="#0000FF" stroke="#000000" stroke-width="0.5" d="M-585.772,422.869c-2.466,0.876-5.016,1.497-7.609,1.853
			l-5.214-37.934L-585.772,422.869z"/>
		<path fill="#039BE5" stroke="#000000" stroke-width="0.5" d="M-593.381,424.722c-20.95,2.881-40.268-11.769-43.148-32.719
			l37.934-5.214L-593.381,424.722z"/>
		<path fill="#FF00CC" stroke="#000000" stroke-width="0.5" d="M-636.529,392.003c-2.88-20.952,11.769-40.27,32.721-43.15
			c1.727-0.238,3.47-0.356,5.213-0.356v38.291L-636.529,392.003z"/>
	</g>
	<g id="HG00146_1" transform="translate(1149.5606797629757,388.67361608282664)">
		<circle fill="#FFFFFF" stroke="#000000" stroke-width="2" cx="-1046.03" cy="188.689" r="37.557">
		<title>HG00146_1</title>
		</circle>
		<path fill="#FFFFFF" stroke="#000000" stroke-width="0.5" d="M-1046.03,151.132L-1046.03,151.132v37.557V151.132z"/>
		<path fill="#E74C3C" stroke="#000000" stroke-width="0.5" d="M-1046.03,151.132c20.741,0,37.557,16.816,37.557,37.557
			c0,6.141-1.507,12.188-4.388,17.611l-33.169-17.611V151.132z"/>
		<path fill="#2ECC71" stroke="#000000" stroke-width="0.5" d="M-1012.861,206.3c-2.719,5.125-6.59,9.549-11.312,12.929
			l-21.857-30.54L-1012.861,206.3z"/>
		<path fill="#0000FF" stroke="#000000" stroke-width="0.5" d="M-1024.173,219.228c-16.864,12.072-40.325,8.185-52.397-8.683
			c-8.437-11.787-9.336-27.377-2.312-40.057l32.852,18.2L-1024.173,219.228z"/>
		<path fill="#039BE5" stroke="#000000" stroke-width="0.5" d="M-1078.881,170.489c4.13-7.457,10.675-13.284,18.555-16.529
			l14.297,34.729L-1078.881,170.489z"/>
		<path fill="#FF00CC" stroke="#000000" stroke-width="0.5" d="M-1060.326,153.96c4.537-1.867,9.391-2.828,14.297-2.828v37.557
			L-1060.326,153.96z"/>
	</g>
	<g id="HG01342_2" transform="translate(981.6653129718762,188.7725662477806)">
		<circle fill="#FFFFFF" stroke="#000000" stroke-width="2" cx="-972.925" cy="275.73" r="27.369">
		<title>HG01342_2</title>
		</circle>
		<path fill="#FFFFFF" stroke="#000000" stroke-width="0.5" d="M-972.925,248.361L-972.925,248.361v27.369V248.361z"/>
		<path fill="#E74C3C" stroke="#000000" stroke-width="0.5" d="M-972.925,248.361c15.118,0,27.37,12.253,27.37,27.369
			c0,15.115-12.253,27.369-27.37,27.369c-6.784,0-13.326-2.521-18.358-7.071l18.358-20.298V248.361z"/>
		<path fill="#2ECC71" stroke="#000000" stroke-width="0.5" d="M-991.283,296.028c-0.453-0.409-0.889-0.833-1.313-1.272
			l19.671-19.026L-991.283,296.028z"/>
		<path fill="#FF00CC" stroke="#000000" stroke-width="0.5" d="M-992.596,294.756c-10.51-10.865-10.219-28.192,0.647-38.7
			c5.103-4.935,11.926-7.695,19.024-7.695v27.369L-992.596,294.756z"/>
	</g>
	<g id="HG00637_1" transform="translate(698.6505492310096,693.3337676194575)">
		<circle fill="#FFFFFF" stroke="#000000" stroke-width="2" cx="-849.694" cy="56.031" r="25.872">
		<title>HG00637_1</title>
		</circle>
		<path fill="#FFFFFF" stroke="#000000" stroke-width="0.5" d="M-849.694,30.159L-849.694,30.159v25.873V30.159z"/>
		<path fill="#E74C3C" stroke="#000000" stroke-width="0.5" d="M-849.694,30.159c14.29,0,25.873,11.583,25.873,25.873
			c0,14.287-11.583,25.87-25.873,25.87c-14.287,0-25.87-11.583-25.87-25.87c0-11.35,7.399-21.378,18.245-24.722l7.625,24.722V30.159
			z"/>
		<path fill="#2ECC71" stroke="#000000" stroke-width="0.5" d="M-857.319,31.31c1.853-0.572,3.761-0.935,5.691-1.077l1.934,25.799
			L-857.319,31.31z"/>
		<path fill="#039BE5" stroke="#000000" stroke-width="0.5" d="M-851.628,30.233c0.644-0.048,1.29-0.074,1.934-0.074v25.873
			L-851.628,30.233z"/>
	</g>
	<g id="HG01052_2" transform="translate(818.88481978486,213.9296639762062)">
		<circle fill="#FFFFFF" stroke="#000000" stroke-width="2" cx="-902.045" cy="264.776" r="25.406">
		<title>HG01052_2</title>
		</circle>
		<path fill="#FFFFFF" stroke="#000000" stroke-width="0.5" d="M-902.045,239.369L-902.045,239.369v25.406V239.369z"/>
		<path fill="#E74C3C" stroke="#000000" stroke-width="0.5" d="M-902.045,239.369c14.031,0,25.404,11.375,25.404,25.406
			c0,14.031-11.373,25.406-25.404,25.406c-14.031,0-25.408-11.375-25.408-25.406c0-6.823,2.745-13.36,7.619-18.138l17.789,18.138
			V239.369z"/>
		<path fill="#2ECC71" stroke="#000000" stroke-width="0.5" d="M-919.834,246.637c0.469-0.459,0.954-0.901,1.458-1.324
			l16.331,19.462L-919.834,246.637z"/>
		<path fill="#FF00CC" stroke="#000000" stroke-width="0.5" d="M-918.375,245.313c4.576-3.839,10.358-5.944,16.331-5.944v25.406
			L-918.375,245.313z"/>
	</g>
	<g id="HG01241_2" transform="translate(821.5090859829465,70.74750278141961)">
		<circle fill="#FFFFFF" stroke="#000000" stroke-width="2" cx="-903.188" cy="327.121" r="20.551">
		<title>HG01241_2</title>
		</circle>
		<path fill="#FFFFFF" stroke="#000000" stroke-width="0.5" d="M-903.188,306.57L-903.188,306.57v20.551V306.57z"/>
		<path fill="#E74C3C" stroke="#000000" stroke-width="0.5" d="M-903.188,306.57c11.35,0,20.55,9.202,20.55,20.551
			c0,11.35-9.2,20.552-20.55,20.552c-11.351,0-20.551-9.202-20.551-20.552c0-8.589,5.342-16.274,13.394-19.264l7.156,19.264V306.57z
			"/>
		<path fill="#2ECC71" stroke="#000000" stroke-width="0.5" d="M-910.344,307.857c2.29-0.852,4.715-1.287,7.156-1.287v20.551
			L-910.344,307.857z"/>
	</g>
	<g id="HG00106_1" transform="translate(498.7060833081527,-56.675740538578864)">
		<circle fill="#FFFFFF" stroke="#000000" stroke-width="2" cx="-762.632" cy="382.604" r="19.76">
		<title>HG00106_1</title>
		</circle>
		<path fill="#FFFFFF" stroke="#000000" stroke-width="0.5" d="M-762.632,362.844L-762.632,362.844v19.76V362.844z"/>
		<path fill="#E74C3C" stroke="#000000" stroke-width="0.5" d="M-762.632,362.844c2.542,0,5.059,0.49,7.415,1.444l-7.415,18.316
			V362.844z"/>
		<path fill="#2ECC71" stroke="#000000" stroke-width="0.5" d="M-755.217,364.288c6.404,2.594,10.988,8.343,12.091,15.163
			l-19.506,3.153L-755.217,364.288z"/>
		<path fill="#039BE5" stroke="#000000" stroke-width="0.5" d="M-743.126,379.451c1.743,10.773-5.58,20.919-16.353,22.661
			c-10.773,1.741-20.918-5.58-22.661-16.353c-1.471-9.101,3.547-18.01,12.093-21.471l7.415,18.316L-743.126,379.451z"/>
		<path fill="#FF00CC" stroke="#000000" stroke-width="0.5" d="M-770.047,364.288c2.356-0.954,4.873-1.444,7.415-1.444v19.76
			L-770.047,364.288z"/>
	</g>
	<g id="HG00122_2" transform="translate(212.85445286518254,958.3827155935694)">
		<circle fill="#FFFFFF" stroke="#000000" stroke-width="2" cx="-638.166" cy="-59.378" r="17.854">
		<title>HG00122_2</title>
		</circle>
		<path fill="#FFFFFF" stroke="#000000" stroke-width="0.5" d="M-638.166-77.232L-638.166-77.232v17.854V-77.232z"/>
		<path fill="#2ECC71" stroke="#000000" stroke-width="0.5" d="M-638.166-77.232c9.861,0,17.854,7.994,17.854,17.854l0,0h-17.854
			V-77.232z"/>
		<path fill="#0000FF" stroke="#000000" stroke-width="0.5" d="M-620.312-59.378c0,9.86-7.992,17.854-17.854,17.854
			c-1.872,0-3.735-0.294-5.517-0.873l5.517-16.98H-620.312z"/>
		<path fill="#039BE5" stroke="#000000" stroke-width="0.5" d="M-643.682-42.398c-9.378-3.046-14.51-13.119-11.462-22.497
			c0.87-2.678,2.362-5.116,4.354-7.108l12.625,12.625L-643.682-42.398z"/>
		<path fill="#FF00CC" stroke="#000000" stroke-width="0.5" d="M-650.79-72.003c3.349-3.347,7.89-5.229,12.625-5.229v17.854
			L-650.79-72.003z"/>
	</g>
	<g id="HG00436_1" transform="translate(1035.3929706824429,717.2438679112329)">
		<circle fill="#FFFFFF" stroke="#000000" stroke-width="2" cx="-996.32" cy="45.62" r="15.202">
		<title>HG00436_1</title>
		</circle>
		<path fill="#FFFFFF" stroke="#000000" stroke-width="0.5" d="M-996.32,30.418L-996.32,30.418V45.62V30.418z"/>
		<path fill="#2ECC71" stroke="#000000" stroke-width="0.5" d="M-996.32,30.418c8.078,0,14.743,6.316,15.182,14.38l-15.182,0.821
			V30.418z"/>
		<path fill="#0000FF" stroke="#000000" stroke-width="0.5" d="M-981.138,44.798c0.453,8.382-5.976,15.548-14.358,16.001
			c-8.382,0.456-15.548-5.973-16.004-14.355c-0.336-6.215,3.15-12.007,8.799-14.62l6.38,13.795L-981.138,44.798z"/>
		<path fill="#039BE5" stroke="#000000" stroke-width="0.5" d="M-1002.7,31.824c1.999-0.925,4.178-1.407,6.38-1.407V45.62
			L-1002.7,31.824z"/>
	</g>
	<g id="HG01079_2" transform="translate(756.8263376859867,502.77062836419276)">
		<circle fill="#FFFFFF" stroke="#000000" stroke-width="2" cx="-875.024" cy="139.006" r="13.241">
		<title>HG01079_2</title>
		</circle>
		<path fill="#FFFFFF" stroke="#000000" stroke-width="0.5" d="M-875.024,125.766L-875.024,125.766v13.242V125.766z"/>
		<path fill="#E74C3C" stroke="#000000" stroke-width="0.5" d="M-875.024,125.766c7.312,0,13.242,5.927,13.242,13.242
			c0,7.312-5.931,13.239-13.242,13.239s-13.239-5.927-13.239-13.239c0-3.185,1.148-6.264,3.234-8.673l10.005,8.673V125.766z"/>
		<path fill="#2ECC71" stroke="#000000" stroke-width="0.5" d="M-885.029,130.335c2.513-2.901,6.167-4.569,10.005-4.569v13.242
			L-885.029,130.335z"/>
	</g>
	<g id="HG02054_1" transform="translate(704.7401938977324,834.9737167805106)">
		<circle fill="#FFFFFF" stroke="#000000" stroke-width="2" cx="-852.346" cy="-5.642" r="12.937">
		<title>HG02054_1</title>
		</circle>
		<path fill="#FFFFFF" stroke="#000000" stroke-width="0.5" d="M-852.346-18.579L-852.346-18.579v12.935V-18.579z"/>
		<path fill="#E74C3C" stroke="#000000" stroke-width="0.5" d="M-852.346-18.579c7.147,0,12.938,5.792,12.938,12.935
			c0,7.147-5.792,12.938-12.938,12.938c-7.143,0-12.935-5.792-12.935-12.938c0-4.275,2.115-8.278,5.649-10.688l7.286,10.688V-18.579
			z"/>
		<path fill="#2ECC71" stroke="#000000" stroke-width="0.5" d="M-859.631-16.331c1.067-0.728,2.238-1.29,3.473-1.672l3.813,12.359
			L-859.631-16.331z"/>
		<path fill="#039BE5" stroke="#000000" stroke-width="0.5" d="M-856.158-18.003c1.235-0.381,2.522-0.576,3.813-0.576v12.935
			L-856.158-18.003z"/>
	</g>
	<g id="HG00114_2" transform="translate(-79.652054385777,-194.577942177543)">
		<circle fill="#FFFFFF" stroke="#000000" stroke-width="2" cx="-510.8" cy="442.65" r="11.976">
		<title>HG00114_2</title>
		</circle>
		<path fill="#FFFFFF" stroke="#000000" stroke-width="0.5" d="M-510.8,430.674L-510.8,430.674v11.976V430.674z"/>
		<path fill="#2ECC71" stroke="#000000" stroke-width="0.5" d="M-510.8,430.674c6.615,0,11.976,5.362,11.976,11.976
			c0,0.697-0.061,1.394-0.181,2.079l-11.795-2.079V430.674z"/>
		<path fill="#039BE5" stroke="#000000" stroke-width="0.5" d="M-499.005,444.729c-1.15,6.514-7.362,10.864-13.874,9.716
			c-3.486-0.614-6.522-2.741-8.293-5.806l10.372-5.989L-499.005,444.729z"/>
		<path fill="#FF00CC" stroke="#000000" stroke-width="0.5" d="M-521.173,448.639c-3.307-5.729-1.344-13.053,4.383-16.361
			c1.821-1.051,3.887-1.604,5.989-1.604v11.976L-521.173,448.639z"/>
	</g>
	<g id="HG02449_2" transform="translate(722.4623171132923,251.1377822425991)">
		<circle fill="#FFFFFF" stroke="#000000" stroke-width="2" cx="-860.059" cy="248.575" r="9.363">
		<title>HG02449_2</title>
		</circle>
		<path fill="#FFFFFF" stroke="#000000" stroke-width="0.5" d="M-860.059,239.212L-860.059,239.212v9.362V239.212z"/>
		<path fill="#E74C3C" stroke="#000000" stroke-width="0.5" d="M-860.059,257.937c-5.171,0-9.365-4.193-9.365-9.363
			s4.194-9.362,9.365-9.362s9.362,4.191,9.362,9.362S-854.889,257.937-860.059,257.937z"/>
	</g>
	<g id="HG00638_2" transform="translate(832.9430128447116,348.63231433413824)">
		<circle fill="#FFFFFF" stroke="#000000" stroke-width="2" cx="-908.167" cy="206.123" r="8.469">
		<title>HG00638_2</title>
		</circle>
		<path fill="#FFFFFF" stroke="#000000" stroke-width="0.5" d="M-908.167,197.654L-908.167,197.654v8.469V197.654z"/>
		<path fill="#E74C3C" stroke="#000000" stroke-width="0.5" d="M-908.167,197.654c4.679,0,8.469,3.793,8.469,8.469
			s-3.79,8.469-8.469,8.469c-4.676,0-8.469-3.793-8.469-8.469c0-0.491,0.045-0.986,0.129-1.471l8.34,1.471V197.654z"/>
		<path fill="#2ECC71" stroke="#000000" stroke-width="0.5" d="M-916.507,204.651c0.715-4.045,4.23-6.998,8.34-6.998v8.469
			L-916.507,204.651z"/>
	</g>
	<g id="HG01242_2" transform="translate(-412.5956117798781,275.37317071460893)">
		<circle fill="#FFFFFF" stroke="#000000" stroke-width="2" cx="-365.829" cy="238.021" r="8.468">
		<title>HG01242_2</title>
		</circle>
		<path fill="#FFFFFF" stroke="#000000" stroke-width="0.5" d="M-365.829,229.553L-365.829,229.553v8.469V229.553z"/>
		<path fill="#E74C3C" stroke="#000000" stroke-width="0.5" d="M-365.829,229.553c4.678,0,8.469,3.792,8.469,8.469
			c0,4.676-3.792,8.468-8.469,8.468s-8.469-3.792-8.469-8.468c0-0.493,0.044-0.985,0.129-1.471l8.34,1.471V229.553z"/>
		<path fill="#2ECC71" stroke="#000000" stroke-width="0.5" d="M-374.169,236.551c0.713-4.047,4.23-6.998,8.34-6.998v8.469
			L-374.169,236.551z"/>
	</g>
	<g id="HG00174_1" transform="translate(635.2978272081828,276.95154873580924)">
		<circle fill="#FFFFFF" stroke="#000000" stroke-width="2" cx="-822.106" cy="237.335" r="7.984">
		<title>HG00174_1</title>
		</circle>
		<path fill="#FFFFFF" stroke="#000000" stroke-width="0.5" d="M-822.106,229.35L-822.106,229.35v7.984V229.35z"/>
		<path fill="#E74C3C" stroke="#000000" stroke-width="0.5" d="M-822.106,229.35c4.408,0,7.984,3.575,7.984,7.984h-7.984V229.35z"/>
		<path fill="#2ECC71" stroke="#000000" stroke-width="0.5" d="M-814.122,237.335c0,2.118-0.841,4.149-2.338,5.646l-5.646-5.646
			H-814.122z"/>
		<path fill="#039BE5" stroke="#000000" stroke-width="0.5" d="M-816.46,242.981c-3.121,3.117-8.175,3.117-11.292,0
			c-3.117-3.119-3.117-8.173,0-11.292l5.646,5.646L-816.46,242.981z"/>
		<path fill="#FF00CC" stroke="#000000" stroke-width="0.5" d="M-827.752,231.688c1.497-1.497,3.528-2.338,5.646-2.338v7.984
			L-827.752,231.688z"/>
	</g>
	<g id="HG03888_1" transform="translate(1077.5997366875908,827.4639447884518)">
		<circle fill="#FFFFFF" stroke="#000000" stroke-width="2" cx="-1014.697" cy="-2.373" r="7.984">
		<title>HG03888_1</title>
		</circle>
		<path fill="#FFFFFF" stroke="#000000" stroke-width="0.5" d="M-1014.697-10.357L-1014.697-10.357v7.984V-10.357z"/>
		<path fill="#0000FF" stroke="#000000" stroke-width="0.5" d="M-1014.697-10.357c4.411,0,7.984,3.577,7.984,7.984
			c0,4.411-3.573,7.984-7.984,7.984c-4.408,0-7.984-3.573-7.984-7.984c0-2.118,0.841-4.149,2.338-5.646l5.646,5.646V-10.357z"/>
		<path fill="#FF00CC" stroke="#000000" stroke-width="0.5" d="M-1020.343-8.019c1.497-1.497,3.528-2.338,5.646-2.338v7.984
			L-1020.343-8.019z"/>
	</g>
	<g id="HG01362_2" transform="translate(4.274738128540806,1063.5979481174531)">
		<circle fill="#FFFFFF" stroke="#000000" stroke-width="2" cx="-547.344" cy="-105.191" r="7.986">
		<title>HG01362_2</title>
		</circle>
		<path fill="#FFFFFF" stroke="#000000" stroke-width="0.5" d="M-547.344-113.176L-547.344-113.176v7.987V-113.176z"/>
		<path fill="#2ECC71" stroke="#000000" stroke-width="0.5" d="M-547.344-113.176c2.118,0,4.149,0.844,5.646,2.341l-5.646,5.646
			V-113.176z"/>
		<path fill="#FF00CC" stroke="#000000" stroke-width="0.5" d="M-541.698-110.835c3.117,3.117,3.117,8.172,0,11.289
			c-3.119,3.121-8.173,3.121-11.292,0c-3.117-3.117-3.117-8.172,0-11.289c1.499-1.497,3.53-2.341,5.646-2.341v7.987
			L-541.698-110.835z"/>
	</g>
	<g id="HG01879_2" transform="translate(674.9738499623007,123.74105737491614)">
		<circle fill="#FFFFFF" stroke="#000000" stroke-width="2" cx="-839.382" cy="304.046" r="7.469">
		<title>HG01879_2</title>
		</circle>
		<path fill="#FFFFFF" stroke="#000000" stroke-width="0.5" d="M-839.382,296.577L-839.382,296.577v7.47V296.577z"/>
		<path fill="#E74C3C" stroke="#000000" stroke-width="0.5" d="M-839.382,311.515c-4.126,0-7.47-3.344-7.47-7.468
			c-0.003-4.125,3.34-7.468,7.467-7.47c0,0,0,0,0.003,0c4.123,0,7.467,3.344,7.47,7.468
			C-831.912,308.17-835.256,311.514-839.382,311.515L-839.382,311.515z"/>
	</g>
	<g id="HG01912_2" transform="translate(918.7749730651369,-458.1395720665481)">
		<circle fill="#FFFFFF" stroke="#000000" stroke-width="2" cx="-945.541" cy="557.412" r="7.468">
		<title>HG01912_2</title>
		</circle>
		<path fill="#FFFFFF" stroke="#000000" stroke-width="0.5" d="M-945.541,549.943L-945.541,549.943v7.468V549.943z"/>
		<path fill="#E74C3C" stroke="#000000" stroke-width="0.5" d="M-945.541,564.88c-4.123,0-7.467-3.342-7.47-7.467
			c0-4.126,3.344-7.47,7.47-7.47l0,0c4.126-0.002,7.47,3.342,7.47,7.467c0.003,4.125-3.34,7.47-7.467,7.47
			C-945.538,564.88-945.538,564.88-945.541,564.88z"/>
	</g>
	<g id="HG00674_2" transform="translate(257.2822371429283,1260.30680037016)">
		<circle fill="#FFFFFF" stroke="#000000" stroke-width="2" cx="-657.51" cy="-190.842" r="7.468">
		<title>HG00674_2</title>
		</circle>
		<path fill="#FFFFFF" stroke="#000000" stroke-width="0.5" d="M-657.51-198.311L-657.51-198.311v7.47V-198.311z"/>
		<path fill="#E74C3C" stroke="#000000" stroke-width="0.5" d="M-657.51-198.311c2.273,0,4.422,1.035,5.84,2.813l-5.84,4.657
			V-198.311z"/>
		<path fill="#0000FF" stroke="#000000" stroke-width="0.5" d="M-651.67-195.497c1.416,1.775,1.948,4.1,1.442,6.315l-7.282-1.659
			L-651.67-195.497z"/>
		<path fill="#039BE5" stroke="#000000" stroke-width="0.5" d="M-650.228-189.182c-0.506,2.218-1.994,4.081-4.041,5.067
			l-3.242-6.726L-650.228-189.182z"/>
		<path fill="#FF00CC" stroke="#000000" stroke-width="0.5" d="M-654.269-184.115c-3.717,1.792-8.18,0.23-9.97-3.486
			c-1.79-3.719-0.228-8.181,3.488-9.97c1.011-0.488,2.118-0.74,3.24-0.74v7.47L-654.269-184.115z"/>
	</g>
	<g id="HG00452_1" transform="translate(1139.5725954399666,556.5012406438433)">
		<circle fill="#FFFFFF" stroke="#000000" stroke-width="2" cx="-1041.681" cy="115.612" r="6.915">
		<title>HG00452_1</title>
		</circle>
		<path fill="#FFFFFF" stroke="#000000" stroke-width="0.5" d="M-1041.681,108.697L-1041.681,108.697v6.914V108.697z"/>
		<path fill="#0000FF" stroke="#000000" stroke-width="0.5" d="M-1041.681,108.697c3.819,0,6.914,3.098,6.914,6.914
			c0,3.819-3.095,6.917-6.914,6.917c-3.819,0-6.914-3.098-6.914-6.917c0-1.213,0.32-2.406,0.925-3.457l5.989,3.457V108.697z"/>
		<path fill="#FF00CC" stroke="#000000" stroke-width="0.5" d="M-1047.67,112.153c1.235-2.137,3.518-3.457,5.989-3.457v6.914
			L-1047.67,112.153z"/>
	</g>
	<g id="HG00530_1" transform="translate(1045.6618458984333,266.631505001192)">
		<circle fill="#FFFFFF" stroke="#000000" stroke-width="2" cx="-1000.791" cy="241.828" r="6.915">
		<title>HG00530_1</title>
		</circle>
		<path fill="#FFFFFF" stroke="#000000" stroke-width="0.5" d="M-1000.791,234.914L-1000.791,234.914v6.914V234.914z"/>
		<path fill="#0000FF" stroke="#000000" stroke-width="0.5" d="M-1000.791,248.743c-3.819,0-6.914-3.096-6.914-6.915
			c0-3.818,3.095-6.914,6.914-6.914s6.917,3.096,6.917,6.914C-993.874,245.647-996.972,248.743-1000.791,248.743z"/>
	</g>
	<g id="HG00524_1" transform="translate(-149.00518355826085,-201.67345145314926)">
		<circle fill="#FFFFFF" stroke="#000000" stroke-width="2" cx="-480.602" cy="445.74" r="6.311">
		<title>HG00524_1</title>
		</circle>
		<path fill="#FFFFFF" stroke="#000000" stroke-width="0.5" d="M-480.602,439.428L-480.602,439.428v6.311V439.428z"/>
		<path fill="#2ECC71" stroke="#000000" stroke-width="0.5" d="M-480.602,439.428c2.734,0,5.158,1.761,6.002,4.361l-6.002,1.95
			V439.428z"/>
		<path fill="#0000FF" stroke="#000000" stroke-width="0.5" d="M-474.6,443.789c1.078,3.316-0.737,6.877-4.052,7.953
			c-1.922,0.626-4.026,0.291-5.661-0.896l3.711-5.108L-474.6,443.789z"/>
		<path fill="#FF00CC" stroke="#000000" stroke-width="0.5" d="M-484.313,450.847c-2.82-2.049-3.446-5.997-1.397-8.817
			c1.188-1.635,3.087-2.602,5.108-2.602v6.311L-484.313,450.847z"/>
	</g>
	<g id="HG00131_2" transform="translate(985.7309867834808,-562.7925858320867)">
		<circle fill="#FFFFFF" stroke="#000000" stroke-width="2" cx="-974.695" cy="602.979" r="6.312">
		<title>HG00131_2</title>
		</circle>
		<path fill="#FFFFFF" stroke="#000000" stroke-width="0.5" d="M-974.695,596.667L-974.695,596.667v6.312V596.667z"/>
		<path fill="#039BE5" stroke="#000000" stroke-width="0.5" d="M-974.695,596.667c3.486,0,6.312,2.826,6.312,6.312
			c0,3.486-2.826,6.312-6.312,6.312c-1.332,0-2.632-0.422-3.709-1.205l3.709-5.108V596.667z"/>
		<path fill="#FF00CC" stroke="#000000" stroke-width="0.5" d="M-978.404,608.087c-2.82-2.05-3.447-5.997-1.397-8.817
			c1.187-1.635,3.085-2.603,5.106-2.603v6.312L-978.404,608.087z"/>
	</g>
	<g id="HG03380_1" transform="translate(1149.8040563502698,53.85685262474699)">
		<circle fill="#FFFFFF" stroke="#000000" stroke-width="2" cx="-1046.137" cy="334.476" r="6.312">
		<title>HG03380_1</title>
		</circle>
		<path fill="#FFFFFF" stroke="#000000" stroke-width="0.5" d="M-1046.137,328.164L-1046.137,328.164v6.312V328.164z"/>
		<path fill="#E74C3C" stroke="#000000" stroke-width="0.5" d="M-1046.137,328.164c2.736,0,5.158,1.761,6.005,4.361l-6.005,1.952
			V328.164z"/>
		<path fill="#FF00CC" stroke="#000000" stroke-width="0.5" d="M-1040.132,332.525c1.077,3.316-0.737,6.877-4.055,7.953
			c-3.315,1.078-6.875-0.737-7.952-4.052c-1.077-3.316,0.737-6.877,4.052-7.953c0.631-0.205,1.287-0.309,1.95-0.309v6.312
			L-1040.132,332.525z"/>
	</g>
	<g id="HG00592_2" transform="translate(1213.7242652763255,740.6438665586787)">
		<circle fill="#FFFFFF" stroke="#000000" stroke-width="2" cx="-1073.969" cy="35.431" r="5.645">
		<title>HG00592_2</title>
		</circle>
		<path fill="#FFFFFF" stroke="#000000" stroke-width="0.5" d="M-1073.969,29.787L-1073.969,29.787v5.646V29.787z"/>
		<path fill="#0000FF" stroke="#000000" stroke-width="0.5" d="M-1073.969,41.076c-3.117,0-5.646-2.526-5.646-5.643
			c0-3.121,2.529-5.646,5.646-5.646c3.117,0,5.646,2.526,5.646,5.646C-1068.322,38.55-1070.851,41.076-1073.969,41.076z"/>
	</g>
	<g id="HG01354_1" transform="translate(253.04347827841602,69.27056979301013)">
		<circle fill="#FFFFFF" stroke="#000000" stroke-width="2" cx="-655.665" cy="327.764" r="5.645">
		<title>HG01354_1</title>
		</circle>
		<path fill="#FFFFFF" stroke="#000000" stroke-width="0.5" d="M-655.665,322.118L-655.665,322.118v5.646V322.118z"/>
		<path fill="#E74C3C" stroke="#000000" stroke-width="0.5" d="M-655.665,322.118c3.119,0,5.646,2.527,5.646,5.646h-5.646V322.118z"
			/>
		<path fill="#2ECC71" stroke="#000000" stroke-width="0.5" d="M-650.019,327.765c0,3.117-2.527,5.644-5.646,5.644v-5.644H-650.019z
			"/>
		<path fill="#FF00CC" stroke="#000000" stroke-width="0.5" d="M-655.665,333.409c-3.117,0-5.645-2.527-5.645-5.644
			c0-3.119,2.527-5.646,5.645-5.646v5.646V333.409z"/>
	</g>
	<g id="HG00675_1" transform="translate(1288.0941795432234,278.5823656658813)">
		<circle fill="#FFFFFF" stroke="#000000" stroke-width="2" cx="-1106.351" cy="236.625" r="5.645">
		<title>HG00675_1</title>
		</circle>
		<path fill="#FFFFFF" stroke="#000000" stroke-width="0.5" d="M-1106.351,230.979L-1106.351,230.979v5.645V230.979z"/>
		<path fill="#E74C3C" stroke="#000000" stroke-width="0.5" d="M-1106.351,230.979c3.117,0,5.646,2.527,5.646,5.645
			c0,3.119-2.529,5.646-5.646,5.646v-5.646V230.979z"/>
		<path fill="#0000FF" stroke="#000000" stroke-width="0.5" d="M-1106.351,242.27c-3.117,0-5.646-2.527-5.646-5.646
			c0-3.117,2.529-5.645,5.646-5.645v5.645V242.27z"/>
	</g>
	<g id="HG02571_1" transform="translate(986.1280742880026,320.2836995336721)">
		<circle fill="#FFFFFF" stroke="#000000" stroke-width="2" cx="-974.869" cy="218.467" r="5.645">
		<title>HG02571_1</title>
		</circle>
		<path fill="#FFFFFF" stroke="#000000" stroke-width="0.5" d="M-974.869,212.821L-974.869,212.821v5.646V212.821z"/>
		<path fill="#E74C3C" stroke="#000000" stroke-width="0.5" d="M-974.869,224.112c-3.117,0-5.643-2.527-5.643-5.645
			c0-3.119,2.526-5.646,5.643-5.646c3.121,0,5.646,2.527,5.646,5.646C-969.223,221.585-971.748,224.112-974.869,224.112z"/>
	</g>
	<g id="HG01766_2" transform="translate(356.2836677108475,248.98886202885333)">
		<circle fill="#FFFFFF" stroke="#000000" stroke-width="2" cx="-700.618" cy="249.51" r="4.889">
		<title>HG01766_2</title>
		</circle>
		<path fill="#FFFFFF" stroke="#000000" stroke-width="0.5" d="M-700.618,244.621L-700.618,244.621v4.89V244.621z"/>
		<path fill="#039BE5" stroke="#000000" stroke-width="0.5" d="M-700.618,244.621c2.7,0,4.889,2.189,4.889,4.89
			c0,0.859-0.225,1.701-0.655,2.445l-4.235-2.445V244.621z"/>
		<path fill="#FF00CC" stroke="#000000" stroke-width="0.5" d="M-696.383,251.955c-1.35,2.338-4.34,3.14-6.679,1.79
			c-2.338-1.35-3.14-4.341-1.788-6.679c0.873-1.513,2.487-2.445,4.233-2.445v4.89L-696.383,251.955z"/>
	</g>
	<g id="HG02646_2" transform="translate(1352.613552999883,70.28795071884099)">
		<circle fill="#FFFFFF" stroke="#000000" stroke-width="2" cx="-1134.445" cy="327.321" r="4.889">
		<title>HG02646_2</title>
		</circle>
		<path fill="#FFFFFF" stroke="#000000" stroke-width="0.5" d="M-1134.445,322.432L-1134.445,322.432v4.89V322.432z"/>
		<path fill="#E74C3C" stroke="#000000" stroke-width="0.5" d="M-1134.445,332.21c-2.7,0-4.889-2.189-4.889-4.889
			s2.189-4.89,4.889-4.89s4.889,2.189,4.889,4.89S-1131.745,332.21-1134.445,332.21z"/>
	</g>
	<g id="HG01811_2" transform="translate(1064.5162631893463,137.56592148167553)">
		<circle fill="#FFFFFF" stroke="#000000" stroke-width="2" cx="-1009" cy="298.027" r="4.889">
		<title>HG01811_2</title>
		</circle>
		<path fill="#FFFFFF" stroke="#000000" stroke-width="0.5" d="M-1009,293.137L-1009,293.137v4.889V293.137z"/>
		<path fill="#0000FF" stroke="#000000" stroke-width="0.5" d="M-1009,293.137c2.7,0,4.89,2.189,4.89,4.889
			c0,0.859-0.226,1.701-0.656,2.445l-4.233-2.445V293.137z"/>
		<path fill="#FF00CC" stroke="#000000" stroke-width="0.5" d="M-1004.767,300.471c-1.349,2.338-4.34,3.14-6.678,1.79
			s-3.14-4.341-1.788-6.679c0.873-1.513,2.487-2.445,4.233-2.445v4.889L-1004.767,300.471z"/>
	</g>
	<g id="HG03012_1" transform="translate(-379.6437227925064,718.7367590147542)">
		<circle fill="#FFFFFF" stroke="#000000" stroke-width="2" cx="-380.177" cy="44.971" r="4.889">
		<title>HG03012_1</title>
		</circle>
		<path fill="#FFFFFF" stroke="#000000" stroke-width="0.5" d="M-380.177,40.081L-380.177,40.081v4.889V40.081z"/>
		<path fill="#FF00CC" stroke="#000000" stroke-width="0.5" d="M-380.177,49.86c-2.7,0-4.889-2.189-4.889-4.889
			s2.189-4.889,4.889-4.889c2.7,0,4.889,2.189,4.889,4.889S-377.477,49.86-380.177,49.86z"/>
	</g>
	<g id="HG01985_2" transform="translate(734.148196363418,903.7075668979336)">
		<circle fill="#FFFFFF" stroke="#000000" stroke-width="2" cx="-865.148" cy="-35.571" r="3.992">
		<title>HG01985_2</title>
		</circle>
		<path fill="#FFFFFF" stroke="#000000" stroke-width="0.5" d="M-865.148-39.563L-865.148-39.563v3.994V-39.563z"/>
		<path fill="#E74C3C" stroke="#000000" stroke-width="0.5" d="M-865.148-31.579c-2.205,0-3.994-1.788-3.994-3.99
			c0-2.205,1.788-3.994,3.994-3.994l0,0c2.205,0,3.99,1.788,3.99,3.994C-861.158-33.367-862.943-31.579-865.148-31.579
			L-865.148-31.579z"/>
	</g>
	<g id="HG00335_1" transform="translate(930.0714386896352,295.5323912284012)">
		<circle fill="#FFFFFF" stroke="#000000" stroke-width="2" cx="-950.458" cy="229.244" r="3.992">
		<title>HG00335_1</title>
		</circle>
		<path fill="#FFFFFF" stroke="#000000" stroke-width="0.5" d="M-950.458,225.252L-950.458,225.252v3.992V225.252z"/>
		<path fill="#039BE5" stroke="#000000" stroke-width="0.5" d="M-950.458,233.236c-2.205,0-3.994-1.787-3.994-3.992
			s1.788-3.992,3.994-3.992l0,0c2.202,0,3.99,1.787,3.99,3.992C-946.467,231.448-948.255,233.236-950.458,233.236L-950.458,233.236z
			"/>
	</g>
	<g id="HG01695_1" transform="translate(-112.72284971835883,-252.09285373307858)">
		<circle fill="#FFFFFF" stroke="#000000" stroke-width="2" cx="-496.401" cy="467.693" r="3.992">
		<title>HG01695_1</title>
		</circle>
		<path fill="#FFFFFF" stroke="#000000" stroke-width="0.5" d="M-496.401,463.701L-496.401,463.701v3.992V463.701z"/>
		<path fill="#E74C3C" stroke="#000000" stroke-width="0.5" d="M-496.401,463.701c2.205,0,3.992,1.788,3.992,3.992
			c0,2.205-1.787,3.992-3.992,3.992v-3.992V463.701z"/>
		<path fill="#039BE5" stroke="#000000" stroke-width="0.5" d="M-496.401,471.685c-2.204,0-3.992-1.787-3.992-3.992
			c0-2.204,1.788-3.992,3.992-3.992v3.992V471.685z"/>
	</g>
	<g id="HG02190_1" transform="translate(1200.819586350437,511.55679048915516)">
		<circle fill="#FFFFFF" stroke="#000000" stroke-width="2" cx="-1068.349" cy="135.181" r="3.992">
		<title>HG02190_1</title>
		</circle>
		<path fill="#FFFFFF" stroke="#000000" stroke-width="0.5" d="M-1068.349,131.189L-1068.349,131.189v3.994V131.189z"/>
		<path fill="#0000FF" stroke="#000000" stroke-width="0.5" d="M-1068.349,139.173c-2.205,0-3.994-1.785-3.994-3.99
			s1.788-3.994,3.994-3.994l0,0c2.205,0,3.994,1.788,3.994,3.994S-1066.144,139.173-1068.349,139.173L-1068.349,139.173z"/>
	</g>
	<g id="HG02568_1" transform="translate(1177.2206958578724,-56.10564239437857)">
		<circle fill="#FFFFFF" stroke="#000000" stroke-width="2" cx="-1058.073" cy="382.355" r="3.992">
		<title>HG02568_1</title>
		</circle>
		<path fill="#FFFFFF" stroke="#000000" stroke-width="0.5" d="M-1058.073,378.363L-1058.073,378.363v3.992V378.363z"/>
		<path fill="#E74C3C" stroke="#000000" stroke-width="0.5" d="M-1058.073,386.347c-2.205,0-3.994-1.787-3.994-3.992
			c0-2.204,1.788-3.992,3.994-3.992l0,0c2.205,0,3.99,1.788,3.99,3.992C-1054.083,384.561-1055.868,386.347-1058.073,386.347
			L-1058.073,386.347z"/>
	</g>
	<g id="HG01936_2" transform="translate(-314.2766807072032,502.5421446083583)">
		<circle fill="#FFFFFF" stroke="#000000" stroke-width="2" cx="-408.638" cy="139.105" r="3.992">
		<title>HG01936_2</title>
		</circle>
		<path fill="#FFFFFF" stroke="#000000" stroke-width="0.5" d="M-408.638,135.113L-408.638,135.113v3.994V135.113z"/>
		<path fill="#2ECC71" stroke="#000000" stroke-width="0.5" d="M-408.638,143.098c-2.205,0-3.992-1.785-3.992-3.99
			c0-2.205,1.787-3.994,3.992-3.994l0,0c2.204,0,3.992,1.788,3.992,3.994C-404.646,141.312-406.435,143.098-408.638,143.098
			L-408.638,143.098z"/>
	</g>
	<g id="NA18539_2" transform="translate(879.9559558571527,1214.1112409068803)">
		<circle fill="#FFFFFF" stroke="#000000" stroke-width="2" cx="-928.637" cy="-170.727" r="3.992">
		<title>NA18539_2</title>
		</circle>
		<path fill="#FFFFFF" stroke="#000000" stroke-width="0.5" d="M-928.637-174.719L-928.637-174.719v3.99V-174.719z"/>
		<path fill="#0000FF" stroke="#000000" stroke-width="0.5" d="M-928.637-166.735c-2.205,0-3.99-1.788-3.994-3.994
			c0-2.202,1.788-3.99,3.994-3.99l0,0c2.205,0,3.994,1.785,3.994,3.99S-926.432-166.735-928.637-166.735L-928.637-166.735z"/>
	</g>
	<g id="NA18993_2" transform="translate(-207.62250871206166,746.3132198646563)">
		<circle fill="#FFFFFF" stroke="#000000" stroke-width="2" cx="-455.078" cy="32.963" r="3.992">
		<title>NA18993_2</title>
		</circle>
		<path fill="#FFFFFF" stroke="#000000" stroke-width="0.5" d="M-455.078,28.971L-455.078,28.971v3.99V28.971z"/>
		<path fill="#2ECC71" stroke="#000000" stroke-width="0.5" d="M-455.078,28.971c2.204,0,3.992,1.788,3.992,3.99
			c0,2.205-1.788,3.994-3.992,3.994v-3.994V28.971z"/>
		<path fill="#0000FF" stroke="#000000" stroke-width="0.5" d="M-455.078,36.955c-2.205,0-3.992-1.788-3.992-3.994
			c0-2.202,1.787-3.99,3.992-3.99v3.99V36.955z"/>
	</g>
	<g id="HG03949_2" transform="translate(141.63849072725674,1279.184146304954)">
		<circle fill="#FFFFFF" stroke="#000000" stroke-width="2" cx="-607.156" cy="-199.062" r="3.992">
		<title>HG03949_2</title>
		</circle>
		<path fill="#FFFFFF" stroke="#000000" stroke-width="0.5" d="M-607.156-203.054L-607.156-203.054v3.99V-203.054z"/>
		<path fill="#FF00CC" stroke="#000000" stroke-width="0.5" d="M-607.156-195.07c-2.204,0-3.992-1.788-3.992-3.994
			c0-2.202,1.788-3.99,3.992-3.99l0,0c2.205,0,3.992,1.785,3.992,3.99S-604.951-195.07-607.156-195.07L-607.156-195.07z"/>
	</g>
	<g id="HG01767_1" transform="translate(-142.34101676052185,872.4207997781084)">
		<circle fill="#FFFFFF" stroke="#000000" stroke-width="2" cx="-483.505" cy="-21.947" r="3.992">
		<title>HG01767_1</title>
		</circle>
		<path fill="#FFFFFF" stroke="#000000" stroke-width="0.5" d="M-483.505-25.939L-483.505-25.939v3.99V-25.939z"/>
		<path fill="#039BE5" stroke="#000000" stroke-width="0.5" d="M-483.505-25.939c2.205,0,3.994,1.785,3.994,3.99
			c-0.002,2.205-1.788,3.994-3.994,3.994v-3.994V-25.939z"/>
		<path fill="#FF00CC" stroke="#000000" stroke-width="0.5" d="M-483.505-17.955c-2.204,0-3.992-1.788-3.99-3.994
			c0-2.205,1.787-3.99,3.99-3.99v3.99V-17.955z"/>
	</g>
	<g id="HG02490_2" transform="translate(498.53437311002574,1097.8986432025376)">
		<circle fill="#FFFFFF" stroke="#000000" stroke-width="2" cx="-762.557" cy="-120.126" r="3.994">
		<title>HG02490_2</title>
		</circle>
		<path fill="#FFFFFF" stroke="#000000" stroke-width="0.5" d="M-762.557-124.12L-762.557-124.12v3.994V-124.12z"/>
		<path fill="#FF00CC" stroke="#000000" stroke-width="0.5" d="M-762.557-116.133c-2.205,0-3.992-1.788-3.992-3.994
			c0-2.205,1.787-3.99,3.992-3.994l0,0c2.204,0,3.992,1.788,3.992,3.994C-758.565-117.921-760.351-116.136-762.557-116.133
			L-762.557-116.133z"/>
	</g>
	<g id="HG00978_1" transform="translate(978.2952358907012,1187.4166589057613)">
		<circle fill="#FFFFFF" stroke="#000000" stroke-width="2" cx="-971.456" cy="-159.104" r="2.823">
		<title>HG00978_1</title>
		</circle>
		<path fill="#FFFFFF" stroke="#000000" stroke-width="0.5" d="M-971.456-161.927L-971.456-161.927v2.823V-161.927z"/>
		<path fill="#0000FF" stroke="#000000" stroke-width="0.5" d="M-971.456-156.281c-1.559,0-2.823-1.264-2.823-2.823
			c0-1.559,1.264-2.823,2.823-2.823c1.559,0,2.823,1.264,2.823,2.823C-968.633-157.545-969.897-156.281-971.456-156.281z"/>
	</g>
	<g id="HG01518_1" transform="translate(329.62454635999734,-233.22011966556025)">
		<circle fill="#FFFFFF" stroke="#000000" stroke-width="2" cx="-689.009" cy="459.475" r="2.823">
		<title>HG01518_1</title>
		</circle>
		<path fill="#FFFFFF" stroke="#000000" stroke-width="0.5" d="M-689.009,456.652L-689.009,456.652v2.823V456.652z"/>
		<path fill="#039BE5" stroke="#000000" stroke-width="0.5" d="M-689.009,462.298c-1.56,0-2.823-1.264-2.823-2.823
			s1.263-2.823,2.823-2.823c1.559,0,2.821,1.264,2.821,2.823S-687.45,462.298-689.009,462.298z"/>
	</g>
	<g id="NA21100_2" transform="translate(371.4512490300893,-169.4578515101202)">
		<circle fill="#FFFFFF" stroke="#000000" stroke-width="2" cx="-707.222" cy="431.712" r="2.822">
		<title>NA21100_2</title>
		</circle>
		<path fill="#FFFFFF" stroke="#000000" stroke-width="0.5" d="M-707.222,428.89L-707.222,428.89v2.821V428.89z"/>
		<path fill="#FF00CC" stroke="#000000" stroke-width="0.5" d="M-707.222,434.534c-1.559,0-2.821-1.263-2.821-2.823
			c0-1.559,1.263-2.821,2.821-2.821c1.56,0,2.823,1.263,2.823,2.821C-704.399,433.272-705.662,434.534-707.222,434.534z"/>
	</g>
	<g id="HG00608_1" transform="translate(1348.2044113727775,175.21490920100936)">
		<circle fill="#FFFFFF" stroke="#000000" stroke-width="2" cx="-1132.523" cy="281.633" r="2.823">
		<title>HG00608_1</title>
		</circle>
		<path fill="#FFFFFF" stroke="#000000" stroke-width="0.5" d="M-1132.523,278.81L-1132.523,278.81v2.823V278.81z"/>
		<path fill="#0000FF" stroke="#000000" stroke-width="0.5" d="M-1132.523,284.456c-1.559,0-2.823-1.264-2.823-2.823
			c0-1.559,1.264-2.823,2.823-2.823c1.559,0,2.823,1.264,2.823,2.823C-1129.7,283.192-1130.964,284.456-1132.523,284.456z"/>
	</g>
	<g id="HG02490_1" transform="translate(215.17463124822117,-162.12856953481872)">
		<circle fill="#FFFFFF" stroke="#000000" stroke-width="2" cx="-639.176" cy="428.52" r="2.822">
		<title>HG02490_1</title>
		</circle>
		<path fill="#FFFFFF" stroke="#000000" stroke-width="0.5" d="M-639.176,425.698L-639.176,425.698v2.823V425.698z"/>
		<path fill="#FF00CC" stroke="#000000" stroke-width="0.5" d="M-639.176,431.343c-1.559,0-2.821-1.263-2.821-2.821
			c0-1.56,1.263-2.823,2.821-2.823c1.56,0,2.823,1.263,2.823,2.823C-636.352,430.08-637.615,431.343-639.176,431.343z"/>
	</g>
	<g id="NA06994_2" transform="translate(516.4947595239807,157.97756387640734)">
		<circle fill="#FFFFFF" stroke="#000000" stroke-width="2" cx="-770.377" cy="289.138" r="2.823">
		<title>NA06994_2</title>
		</circle>
		<path fill="#FFFFFF" stroke="#000000" stroke-width="0.5" d="M-770.377,286.315L-770.377,286.315v2.823V286.315z"/>
		<path fill="#039BE5" stroke="#000000" stroke-width="0.5" d="M-770.377,291.961c-1.559,0-2.823-1.264-2.823-2.823
			c0-1.559,1.264-2.823,2.823-2.823c1.559,0,2.823,1.264,2.823,2.823C-767.554,290.697-768.819,291.961-770.377,291.961z"/>
	</g>
	<g id="HG01678_2" transform="translate(5.2386722565197585,-57.32694627936164)">
		<circle fill="#FFFFFF" stroke="#000000" stroke-width="2" cx="-547.763" cy="382.887" r="2.823">
		<title>HG01678_2</title>
		</circle>
		<path fill="#FFFFFF" stroke="#000000" stroke-width="0.5" d="M-547.763,380.064L-547.763,380.064v2.823V380.064z"/>
		<path fill="#039BE5" stroke="#000000" stroke-width="0.5" d="M-547.763,385.711c-1.559,0-2.823-1.264-2.823-2.823
			c0-1.559,1.264-2.823,2.823-2.823c1.559,0,2.823,1.264,2.823,2.823C-544.94,384.446-546.205,385.711-547.763,385.711z"/>
	</g>
	<g id="HG03649_2" transform="translate(152.78331432146584,-181.39313570603275)">
		<circle fill="#FFFFFF" stroke="#000000" stroke-width="2" cx="-612.008" cy="436.909" r="2.823">
		<title>HG03649_2</title>
		</circle>
		<path fill="#FFFFFF" stroke="#000000" stroke-width="0.5" d="M-612.008,434.086L-612.008,434.086v2.823V434.086z"/>
		<path fill="#FF00CC" stroke="#000000" stroke-width="0.5" d="M-612.008,439.732c-1.559,0-2.823-1.264-2.823-2.823
			c0-1.559,1.264-2.823,2.823-2.823s2.823,1.264,2.823,2.823C-609.185,438.468-610.449,439.732-612.008,439.732z"/>
	</g>
	<g id="NA19468_2" transform="translate(-5.329146076996489,-145.62482494307983)">
		<circle fill="#FFFFFF" stroke="#000000" stroke-width="2" cx="-543.162" cy="421.335" r="2.822">
		<title>NA19468_2</title>
		</circle>
		<path fill="#FFFFFF" stroke="#000000" stroke-width="0.5" d="M-543.162,418.512L-543.162,418.512v2.821V418.512z"/>
		<path fill="#E74C3C" stroke="#000000" stroke-width="0.5" d="M-543.162,424.157c-1.559,0-2.823-1.263-2.823-2.823
			c0-1.559,1.264-2.821,2.823-2.821c1.559,0,2.823,1.263,2.823,2.821C-540.339,422.894-541.603,424.157-543.162,424.157z"/>
	</g>
	<g id="HG03120_1" transform="translate(551.079601559936,82.28755111489023)">
		<circle fill="#FFFFFF" stroke="#000000" stroke-width="2" cx="-785.437" cy="322.096" r="2.823">
		<title>HG03120_1</title>
		</circle>
		<path fill="#FFFFFF" stroke="#000000" stroke-width="0.5" d="M-785.437,319.273L-785.437,319.273v2.823V319.273z"/>
		<path fill="#E74C3C" stroke="#000000" stroke-width="0.5" d="M-785.437,324.919c-1.559,0-2.823-1.264-2.823-2.823
			c0-1.559,1.264-2.823,2.823-2.823s2.823,1.264,2.823,2.823C-782.614,323.655-783.878,324.919-785.437,324.919z"/>
	</g>
	<g id="HG03945_1" transform="translate(330.10707068293755,213.46543546102095)">
		<circle fill="#FFFFFF" stroke="#000000" stroke-width="2" cx="-689.219" cy="264.978" r="2.823">
		<title>HG03945_1</title>
		</circle>
		<path fill="#FFFFFF" stroke="#000000" stroke-width="0.5" d="M-689.219,262.154L-689.219,262.154v2.823V262.154z"/>
		<path fill="#FF00CC" stroke="#000000" stroke-width="0.5" d="M-689.219,267.801c-1.559,0-2.823-1.264-2.823-2.823
			c0-1.559,1.264-2.823,2.823-2.823s2.823,1.264,2.823,2.823C-686.396,266.536-687.661,267.801-689.219,267.801z"/>
	</g>
	<g id="NA18984_1" transform="translate(943.4717220778099,667.3826366820471)">
		<circle fill="#FFFFFF" stroke="#000000" stroke-width="2" cx="-956.294" cy="67.331" r="2.823">
		<title>NA18984_1</title>
		</circle>
		<path fill="#FFFFFF" stroke="#000000" stroke-width="0.5" d="M-956.294,64.508L-956.294,64.508v2.823V64.508z"/>
		<path fill="#0000FF" stroke="#000000" stroke-width="0.5" d="M-956.294,70.154c-1.559,0-2.823-1.264-2.823-2.823
			c0-1.559,1.264-2.823,2.823-2.823c1.559,0,2.823,1.264,2.823,2.823C-953.471,68.89-954.735,70.154-956.294,70.154z"/>
	</g>
	<g id="NA21126_1" transform="translate(749.3629491989809,392.1309853140966)">
		<circle fill="#FFFFFF" stroke="#000000" stroke-width="2" cx="-871.774" cy="187.181" r="2.823">
		<title>NA21126_1</title>
		</circle>
		<path fill="#FFFFFF" stroke="#000000" stroke-width="0.5" d="M-871.774,184.358L-871.774,184.358v2.823V184.358z"/>
		<path fill="#FF00CC" stroke="#000000" stroke-width="0.5" d="M-871.774,190.004c-1.559,0-2.823-1.261-2.823-2.823
			c0-1.559,1.264-2.823,2.823-2.823c1.559,0,2.823,1.264,2.823,2.823C-868.951,188.743-870.215,190.004-871.774,190.004z"/>
	</g>
	<g id="HG01813_2" transform="translate(1120.2806548229478,287.3497379895538)">
		<circle fill="#FFFFFF" stroke="#000000" stroke-width="2" cx="-1033.28" cy="232.807" r="2.823">
		<title>HG01813_2</title>
		</circle>
		<path fill="#FFFFFF" stroke="#000000" stroke-width="0.5" d="M-1033.28,229.984L-1033.28,229.984v2.823V229.984z"/>
		<path fill="#0000FF" stroke="#000000" stroke-width="0.5" d="M-1033.28,235.63c-1.559,0-2.823-1.264-2.823-2.823
			c0-1.559,1.264-2.823,2.823-2.823c1.559,0,2.823,1.264,2.823,2.823C-1030.457,234.366-1031.721,235.63-1033.28,235.63z"/>
	</g>
	<g id="HG03514_2" transform="translate(1272.5818259929515,421.67715941195496)">
		<circle fill="#FFFFFF" stroke="#000000" stroke-width="2" cx="-1099.596" cy="174.318" r="2.823">
		<title>HG03514_2</title>
		</circle>
		<path fill="#FFFFFF" stroke="#000000" stroke-width="0.5" d="M-1099.596,171.495L-1099.596,171.495v2.823V171.495z"/>
		<path fill="#E74C3C" stroke="#000000" stroke-width="0.5" d="M-1099.596,177.141c-1.559,0-2.823-1.264-2.823-2.823
			c0-1.559,1.264-2.823,2.823-2.823c1.559,0,2.823,1.264,2.823,2.823C-1096.772,175.876-1098.037,177.141-1099.596,177.141z"/>
	</g>
	<g id="NA19327_2" transform="translate(618.9203641153227,743.1555901921498)">
		<circle fill="#FFFFFF" stroke="#000000" stroke-width="2" cx="-814.977" cy="34.337" r="2.823">
		<title>NA19327_2</title>
		</circle>
		<path fill="#FFFFFF" stroke="#000000" stroke-width="0.5" d="M-814.977,31.514L-814.977,31.514v2.823V31.514z"/>
		<path fill="#E74C3C" stroke="#000000" stroke-width="0.5" d="M-814.977,37.16c-1.559,0-2.823-1.264-2.823-2.823
			s1.264-2.823,2.823-2.823c1.562,0,2.823,1.264,2.823,2.823S-813.415,37.16-814.977,37.16z"/>
	</g>
	<g id="HG01286_2" transform="translate(899.9575247911538,-91.16291017638721)">
		<circle fill="#FFFFFF" stroke="#000000" stroke-width="2" cx="-937.347" cy="397.62" r="2.823">
		<title>HG01286_2</title>
		</circle>
		<path fill="#FFFFFF" stroke="#000000" stroke-width="0.5" d="M-937.347,394.797L-937.347,394.797v2.823V394.797z"/>
		<path fill="#2ECC71" stroke="#000000" stroke-width="0.5" d="M-937.347,400.443c-1.559,0-2.823-1.264-2.823-2.823
			c0-1.559,1.264-2.823,2.823-2.823c1.559,0,2.823,1.264,2.823,2.823C-934.524,399.179-935.788,400.443-937.347,400.443z"/>
	</g>
	<g id="HG03259_1" transform="translate(929.3223164955342,-109.53581298430672)">
		<circle fill="#FFFFFF" stroke="#000000" stroke-width="2" cx="-950.132" cy="405.621" r="2.823">
		<title>HG03259_1</title>
		</circle>
		<path fill="#FFFFFF" stroke="#000000" stroke-width="0.5" d="M-950.132,402.798L-950.132,402.798v2.823V402.798z"/>
		<path fill="#E74C3C" stroke="#000000" stroke-width="0.5" d="M-950.132,408.444c-1.559,0-2.823-1.264-2.823-2.823
			c0-1.56,1.264-2.823,2.823-2.823c1.559,0,2.823,1.263,2.823,2.823C-947.309,407.179-948.573,408.444-950.132,408.444z"/>
	</g>
	<g id="HG02943_2" transform="translate(714.6937980016775,67.55990742327559)">
		<circle fill="#FFFFFF" stroke="#000000" stroke-width="2" cx="-856.679" cy="328.508" r="2.823">
		<title>HG02943_2</title>
		</circle>
		<path fill="#FFFFFF" stroke="#000000" stroke-width="0.5" d="M-856.679,325.685L-856.679,325.685v2.823V325.685z"/>
		<path fill="#E74C3C" stroke="#000000" stroke-width="0.5" d="M-856.679,331.331c-1.559,0-2.823-1.263-2.823-2.823
			c0-1.559,1.264-2.823,2.823-2.823s2.823,1.264,2.823,2.823C-853.856,330.068-855.12,331.331-856.679,331.331z"/>
	</g>
	<g id="HG03064_2" transform="translate(694.139591889014,904.5502444369579)">
		<circle fill="#FFFFFF" stroke="#000000" stroke-width="2" cx="-847.727" cy="-35.937" r="2.823">
		<title>HG03064_2</title>
		</circle>
		<path fill="#FFFFFF" stroke="#000000" stroke-width="0.5" d="M-847.727-38.76L-847.727-38.76v2.823V-38.76z"/>
		<path fill="#E74C3C" stroke="#000000" stroke-width="0.5" d="M-847.727-33.114c-1.559,0-2.823-1.264-2.823-2.823
			c0-1.559,1.264-2.823,2.823-2.823c1.559,0,2.823,1.264,2.823,2.823C-844.904-34.378-846.169-33.114-847.727-33.114z"/>
	</g>
	<g id="NA18967_1" transform="translate(1101.2086712538594,887.4668052590732)">
		<circle fill="#FFFFFF" stroke="#000000" stroke-width="2" cx="-1024.977" cy="-28.499" r="2.823">
		<title>NA18967_1</title>
		</circle>
		<path fill="#FFFFFF" stroke="#000000" stroke-width="0.5" d="M-1024.977-31.323L-1024.977-31.323v2.823V-31.323z"/>
		<path fill="#0000FF" stroke="#000000" stroke-width="0.5" d="M-1024.977-25.676c-1.559,0-2.823-1.264-2.823-2.823
			s1.264-2.823,2.823-2.823c1.559,0,2.823,1.264,2.823,2.823S-1023.418-25.676-1024.977-25.676z"/>
	</g>
	<g id="HG01756_1" transform="translate(895.087757375841,-541.1712993928086)">
		<circle fill="#FFFFFF" stroke="#000000" stroke-width="2" cx="-935.226" cy="593.565" r="2.823">
		<title>HG01756_1</title>
		</circle>
		<path fill="#FFFFFF" stroke="#000000" stroke-width="0.5" d="M-935.226,590.742L-935.226,590.742v2.823V590.742z"/>
		<path fill="#039BE5" stroke="#000000" stroke-width="0.5" d="M-935.226,596.388c-1.559,0-2.823-1.264-2.823-2.823
			c0-1.559,1.264-2.823,2.823-2.823c1.559,0,2.823,1.264,2.823,2.823C-932.403,595.124-933.667,596.388-935.226,596.388z"/>
	</g>
	<g id="HG01187_2" transform="translate(877.5482014167064,-396.5575861261204)">
		<circle fill="#FFFFFF" stroke="#000000" stroke-width="2" cx="-927.588" cy="530.597" r="2.823">
		<title>HG01187_2</title>
		</circle>
		<path fill="#FFFFFF" stroke="#000000" stroke-width="0.5" d="M-927.588,527.774L-927.588,527.774v2.823V527.774z"/>
		<path fill="#2ECC71" stroke="#000000" stroke-width="0.5" d="M-927.588,533.42c-1.559,0-2.823-1.264-2.823-2.823
			c0-1.56,1.264-2.823,2.823-2.823s2.823,1.263,2.823,2.823C-924.765,532.156-926.029,533.42-927.588,533.42z"/>
	</g>
	<g id="HG01767_2" transform="translate(894.1847233399143,-420.0800508779255)">
		<circle fill="#FFFFFF" stroke="#000000" stroke-width="2" cx="-934.833" cy="540.839" r="2.823">
		<title>HG01767_2</title>
		</circle>
		<path fill="#FFFFFF" stroke="#000000" stroke-width="0.5" d="M-934.833,538.016L-934.833,538.016v2.823V538.016z"/>
		<path fill="#039BE5" stroke="#000000" stroke-width="0.5" d="M-934.833,543.662c-1.559,0-2.823-1.264-2.823-2.823
			c0-1.559,1.264-2.823,2.823-2.823c1.559,0,2.823,1.264,2.823,2.823C-932.01,542.397-933.275,543.662-934.833,543.662z"/>
	</g>
	<g id="HG04176_2" transform="translate(945.665206889375,-494.6456465161395)">
		<circle fill="#FFFFFF" stroke="#000000" stroke-width="2" cx="-957.249" cy="573.307" r="2.823">
		<title>HG04176_2</title>
		</circle>
		<path fill="#FFFFFF" stroke="#000000" stroke-width="0.5" d="M-957.249,570.484L-957.249,570.484v2.823V570.484z"/>
		<path fill="#FF00CC" stroke="#000000" stroke-width="0.5" d="M-957.249,576.13c-1.559,0-2.823-1.264-2.823-2.823
			c0-1.56,1.264-2.823,2.823-2.823c1.559,0,2.823,1.263,2.823,2.823C-954.426,574.866-955.69,576.13-957.249,576.13z"/>
	</g>
	<g id="NA19025_1" transform="translate(1230.3339585205638,-98.96086371422484)">
		<circle fill="#FFFFFF" stroke="#000000" stroke-width="2" cx="-1081.2" cy="401.015" r="2.823">
		<title>NA19025_1</title>
		</circle>
		<path fill="#FFFFFF" stroke="#000000" stroke-width="0.5" d="M-1081.2,398.192L-1081.2,398.192v2.823V398.192z"/>
		<path fill="#E74C3C" stroke="#000000" stroke-width="0.5" d="M-1081.2,403.838c-1.559,0-2.823-1.263-2.823-2.823
			c0-1.559,1.264-2.823,2.823-2.823c1.559,0,2.823,1.264,2.823,2.823C-1078.377,402.576-1079.641,403.838-1081.2,403.838z"/>
	</g>
	<g id="NA20512_2" transform="translate(1153.9033971449946,-47.07808833713378)">
		<circle fill="#FFFFFF" stroke="#000000" stroke-width="2" cx="-1047.921" cy="378.425" r="2.822">
		<title>NA20512_2</title>
		</circle>
		<path fill="#FFFFFF" stroke="#000000" stroke-width="0.5" d="M-1047.921,375.603L-1047.921,375.603v2.823V375.603z"/>
		<path fill="#039BE5" stroke="#000000" stroke-width="0.5" d="M-1047.921,381.247c-1.559,0-2.823-1.263-2.823-2.821
			c0-1.56,1.264-2.823,2.823-2.823s2.823,1.263,2.823,2.823C-1045.098,379.984-1046.362,381.247-1047.921,381.247z"/>
	</g>
	<g id="NA20895_2" transform="translate(866.4925112728149,-367.4106294841442)">
		<circle fill="#FFFFFF" stroke="#000000" stroke-width="2" cx="-922.777" cy="517.905" r="2.823">
		<title>NA20895_2</title>
		</circle>
		<path fill="#FFFFFF" stroke="#000000" stroke-width="0.5" d="M-922.777,515.082L-922.777,515.082v2.823V515.082z"/>
		<path fill="#FF00CC" stroke="#000000" stroke-width="0.5" d="M-922.777,520.728c-1.559,0-2.82-1.264-2.82-2.823
			c0-1.559,1.261-2.823,2.82-2.823c1.562,0,2.823,1.264,2.823,2.823C-919.953,519.464-921.215,520.728-922.777,520.728z"/>
	</g>
	<g id="HG01786_1" transform="translate(1464.6047059151265,803.4585124403936)">
		<circle fill="#FFFFFF" stroke="#000000" stroke-width="2" cx="-1183.207" cy="8.079" r="2.823">
		<title>HG01786_1</title>
		</circle>
		<path fill="#FFFFFF" stroke="#000000" stroke-width="0.5" d="M-1183.207,5.256L-1183.207,5.256v2.823V5.256z"/>
		<path fill="#039BE5" stroke="#000000" stroke-width="0.5" d="M-1183.207,10.902c-1.559,0-2.823-1.264-2.823-2.823
			c0-1.559,1.264-2.823,2.823-2.823c1.559,0,2.823,1.264,2.823,2.823C-1180.384,9.638-1181.648,10.902-1183.207,10.902z"/>
	</g>
	<g id="HG03432_2" transform="translate(-225.4459061955621,156.9177210642146)">
		<circle fill="#FFFFFF" stroke="#000000" stroke-width="2" cx="-447.319" cy="289.6" r="2.823">
		<title>HG03432_2</title>
		</circle>
		<path fill="#FFFFFF" stroke="#000000" stroke-width="0.5" d="M-447.319,286.777L-447.319,286.777v2.823V286.777z"/>
		<path fill="#E74C3C" stroke="#000000" stroke-width="0.5" d="M-447.319,292.423c-1.559,0-2.823-1.264-2.823-2.823
			s1.264-2.823,2.823-2.823c1.559,0,2.823,1.264,2.823,2.823S-445.76,292.423-447.319,292.423z"/>
	</g>
	<g id="HG01924_2" transform="translate(-152.35640439277788,355.66642704370327)">
		<circle fill="#FFFFFF" stroke="#000000" stroke-width="2" cx="-479.144" cy="203.059" r="2.823">
		<title>HG01924_2</title>
		</circle>
		<path fill="#FFFFFF" stroke="#000000" stroke-width="0.5" d="M-479.144,200.236L-479.144,200.236v2.823V200.236z"/>
		<path fill="#2ECC71" stroke="#000000" stroke-width="0.5" d="M-479.144,205.883c-1.559,0-2.823-1.264-2.823-2.823
			c0-1.559,1.264-2.823,2.823-2.823c1.56,0,2.823,1.264,2.823,2.823C-476.321,204.618-477.583,205.883-479.144,205.883z"/>
	</g>
	<g id="HG02983_1" transform="translate(-286.85713110758854,467.8349206212904)">
		<circle fill="#FFFFFF" stroke="#000000" stroke-width="2" cx="-420.578" cy="154.218" r="2.823">
		<title>HG02983_1</title>
		</circle>
		<path fill="#FFFFFF" stroke="#000000" stroke-width="0.5" d="M-420.578,151.395L-420.578,151.395v2.823V151.395z"/>
		<path fill="#E74C3C" stroke="#000000" stroke-width="0.5" d="M-420.578,157.041c-1.559,0-2.823-1.261-2.823-2.823
			c0-1.559,1.264-2.823,2.823-2.823c1.559,0,2.823,1.264,2.823,2.823C-417.755,155.779-419.019,157.041-420.578,157.041z"/>
	</g>
	<g id="HG03069_2" transform="translate(-338.6832369912192,204.35508859187448)">
		<circle fill="#FFFFFF" stroke="#000000" stroke-width="2" cx="-398.013" cy="268.945" r="2.823">
		<title>HG03069_2</title>
		</circle>
		<path fill="#FFFFFF" stroke="#000000" stroke-width="0.5" d="M-398.013,266.121L-398.013,266.121v2.823V266.121z"/>
		<path fill="#E74C3C" stroke="#000000" stroke-width="0.5" d="M-398.013,271.768c-1.559,0-2.821-1.264-2.821-2.823
			s1.263-2.823,2.821-2.823c1.56,0,2.823,1.264,2.823,2.823S-396.452,271.768-398.013,271.768z"/>
	</g>
	<g id="NA18942_1" transform="translate(-287.51230372836073,192.94785364048556)">
		<circle fill="#FFFFFF" stroke="#000000" stroke-width="2" cx="-420.293" cy="273.912" r="2.823">
		<title>NA18942_1</title>
		</circle>
		<path fill="#FFFFFF" stroke="#000000" stroke-width="0.5" d="M-420.293,271.089L-420.293,271.089v2.823V271.089z"/>
		<path fill="#0000FF" stroke="#000000" stroke-width="0.5" d="M-420.293,276.735c-1.559,0-2.823-1.264-2.823-2.823
			c0-1.559,1.264-2.823,2.823-2.823s2.823,1.264,2.823,2.823C-417.47,275.47-418.735,276.735-420.293,276.735z"/>
	</g>
	<g id="NA19171_1" transform="translate(-326.7068900441717,460.69611296111515)">
		<circle fill="#FFFFFF" stroke="#000000" stroke-width="2" cx="-403.227" cy="157.327" r="2.823">
		<title>NA19171_1</title>
		</circle>
		<path fill="#FFFFFF" stroke="#000000" stroke-width="0.5" d="M-403.227,154.504L-403.227,154.504v2.823V154.504z"/>
		<path fill="#E74C3C" stroke="#000000" stroke-width="0.5" d="M-403.227,160.15c-1.559,0-2.823-1.264-2.823-2.823
			c0-1.559,1.264-2.823,2.823-2.823c1.56,0,2.823,1.264,2.823,2.823C-400.404,158.886-401.667,160.15-403.227,160.15z"/>
	</g>
	<g id="NA18941_2" transform="translate(1215.7652346778293,1057.1675652130566)">
		<circle fill="#FFFFFF" stroke="#000000" stroke-width="2" cx="-1074.858" cy="-102.391" r="2.823">
		<title>NA18941_2</title>
		</circle>
		<path fill="#FFFFFF" stroke="#000000" stroke-width="0.5" d="M-1074.858-105.214L-1074.858-105.214v2.823V-105.214z"/>
		<path fill="#0000FF" stroke="#000000" stroke-width="0.5" d="M-1074.858-99.567c-1.559,0-2.823-1.264-2.823-2.823
			s1.264-2.823,2.823-2.823c1.562,0,2.823,1.264,2.823,2.823S-1073.296-99.567-1074.858-99.567z"/>
	</g>
	<g id="HG03926_2" transform="translate(1151.3481080252654,1100.1555616338474)">
		<circle fill="#FFFFFF" stroke="#000000" stroke-width="2" cx="-1046.808" cy="-121.109" r="2.823">
		<title>HG03926_2</title>
		</circle>
		<path fill="#FFFFFF" stroke="#000000" stroke-width="0.5" d="M-1046.808-123.932L-1046.808-123.932v2.823V-123.932z"/>
		<path fill="#FF00CC" stroke="#000000" stroke-width="0.5" d="M-1046.808-118.286c-1.559,0-2.823-1.264-2.823-2.823
			s1.264-2.823,2.823-2.823s2.823,1.264,2.823,2.823S-1045.249-118.286-1046.808-118.286z"/>
	</g>
	<g id="NA20812_2" transform="translate(1125.1479876902472,1120.994583320209)">
		<circle fill="#FFFFFF" stroke="#000000" stroke-width="2" cx="-1035.399" cy="-130.184" r="2.823">
		<title>NA20812_2</title>
		</circle>
		<path fill="#FFFFFF" stroke="#000000" stroke-width="0.5" d="M-1035.399-133.007L-1035.399-133.007v2.823V-133.007z"/>
		<path fill="#039BE5" stroke="#000000" stroke-width="0.5" d="M-1035.399-127.361c-1.559,0-2.823-1.264-2.823-2.823
			c0-1.559,1.264-2.823,2.823-2.823c1.559,0,2.823,1.264,2.823,2.823C-1032.576-128.625-1033.84-127.361-1035.399-127.361z"/>
	</g>
	<g id="NA18642_2" transform="translate(-101.13257688916181,638.4368719704241)">
		<circle fill="#FFFFFF" stroke="#000000" stroke-width="2" cx="-501.446" cy="79.935" r="2.821">
		<title>NA18642_2</title>
		</circle>
		<path fill="#FFFFFF" stroke="#000000" stroke-width="0.5" d="M-501.446,77.113L-501.446,77.113v2.82V77.113z"/>
		<path fill="#0000FF" stroke="#000000" stroke-width="0.5" d="M-501.446,82.756c-1.56,0-2.823-1.261-2.823-2.823
			c0-1.559,1.263-2.82,2.823-2.82c1.559,0,2.821,1.261,2.821,2.82C-498.625,81.495-499.888,82.756-501.446,82.756z"/>
	</g>
	<g id="HG01707_2" transform="translate(100.23444771439664,668.6081972266087)">
		<circle fill="#FFFFFF" stroke="#000000" stroke-width="2" cx="-589.128" cy="66.797" r="2.823">
		<title>HG01707_2</title>
		</circle>
		<path fill="#FFFFFF" stroke="#000000" stroke-width="0.5" d="M-589.128,63.974L-589.128,63.974v2.823V63.974z"/>
		<path fill="#039BE5" stroke="#000000" stroke-width="0.5" d="M-589.128,69.62c-1.559,0-2.823-1.264-2.823-2.823
			c0-1.559,1.264-2.823,2.823-2.823s2.823,1.264,2.823,2.823C-586.305,68.356-587.569,69.62-589.128,69.62z"/>
	</g>
	<g id="HG01492_1" transform="translate(37.38321859170017,1061.4376392480617)">
		<circle fill="#FFFFFF" stroke="#000000" stroke-width="2" cx="-561.76" cy="-104.251" r="2.823">
		<title>HG01492_1</title>
		</circle>
		<path fill="#FFFFFF" stroke="#000000" stroke-width="0.5" d="M-561.76-107.074L-561.76-107.074v2.823V-107.074z"/>
		<path fill="#2ECC71" stroke="#000000" stroke-width="0.5" d="M-561.76-101.428c-1.559,0-2.823-1.264-2.823-2.823
			c0-1.559,1.264-2.823,2.823-2.823c1.559,0,2.823,1.264,2.823,2.823C-558.937-102.693-560.202-101.428-561.76-101.428z"/>
	</g>
	<g id="HG00742_2" transform="translate(10.538661384333171,657.7149275000785)">
		<circle fill="#FFFFFF" stroke="#000000" stroke-width="2" cx="-550.072" cy="71.54" r="2.823">
		<title>HG00742_2</title>
		</circle>
		<path fill="#FFFFFF" stroke="#000000" stroke-width="0.5" d="M-550.072,68.717L-550.072,68.717v2.823V68.717z"/>
		<path fill="#2ECC71" stroke="#000000" stroke-width="0.5" d="M-550.072,74.363c-1.559,0-2.821-1.264-2.821-2.823
			c0-1.559,1.263-2.823,2.821-2.823c1.56,0,2.823,1.264,2.823,2.823C-547.249,73.099-548.512,74.363-550.072,74.363z"/>
	</g>
	<g id="HG01852_1" transform="translate(173.28314778489454,1010.3446105245108)">
		<circle fill="#FFFFFF" stroke="#000000" stroke-width="2" cx="-620.935" cy="-82.003" r="2.823">
		<title>HG01852_1</title>
		</circle>
		<path fill="#FFFFFF" stroke="#000000" stroke-width="0.5" d="M-620.935-84.827L-620.935-84.827v2.823V-84.827z"/>
		<path fill="#0000FF" stroke="#000000" stroke-width="0.5" d="M-620.935-79.18c-1.559,0-2.823-1.264-2.823-2.823
			s1.264-2.823,2.823-2.823c1.559,0,2.823,1.264,2.823,2.823S-619.376-79.18-620.935-79.18z"/>
	</g>
	<g id="HG00759_1" transform="translate(491.75226250105527,1150.6949641232552)">
		<circle fill="#FFFFFF" stroke="#000000" stroke-width="2" cx="-759.603" cy="-143.114" r="2.823">
		<title>HG00759_1</title>
		</circle>
		<path fill="#FFFFFF" stroke="#000000" stroke-width="0.5" d="M-759.603-145.937L-759.603-145.937v2.823V-145.937z"/>
		<path fill="#0000FF" stroke="#000000" stroke-width="0.5" d="M-759.603-140.291c-1.56,0-2.823-1.264-2.823-2.823
			c0-1.559,1.263-2.823,2.823-2.823c1.559,0,2.823,1.264,2.823,2.823C-756.78-141.555-758.045-140.291-759.603-140.291z"/>
	</g>
	<g id="NA20536_2" transform="translate(471.5844557257176,1194.5115408443285)">
		<circle fill="#FFFFFF" stroke="#000000" stroke-width="2" cx="-750.822" cy="-162.194" r="2.821">
		<title>NA20536_2</title>
		</circle>
		<path fill="#FFFFFF" stroke="#000000" stroke-width="0.5" d="M-750.822-165.015L-750.822-165.015v2.82V-165.015z"/>
		<path fill="#039BE5" stroke="#000000" stroke-width="0.5" d="M-750.822-159.372c-1.56,0-2.823-1.261-2.823-2.823
			c0-1.559,1.263-2.82,2.823-2.82c1.559,0,2.821,1.261,2.821,2.82C-748-160.634-749.263-159.372-750.822-159.372z"/>
	</g>
	<g id="NA21118_1" transform="translate(51.54570848839206,1187.8899295151773)">
		<circle fill="#FFFFFF" stroke="#000000" stroke-width="2" cx="-567.927" cy="-159.312" r="2.823">
		<title>NA21118_1</title>
		</circle>
		<path fill="#FFFFFF" stroke="#000000" stroke-width="0.5" d="M-567.927-162.135L-567.927-162.135v2.823V-162.135z"/>
		<path fill="#FF00CC" stroke="#000000" stroke-width="0.5" d="M-567.927-156.489c-1.559,0-2.823-1.261-2.823-2.823
			c0-1.559,1.264-2.823,2.823-2.823c1.559,0,2.823,1.264,2.823,2.823C-565.104-157.75-566.369-156.489-567.927-156.489z"/>
	</g>
	<g id="In16" transform="translate(308.291236218751,-195.94283340867133)">
		<circle fill="#FFFFFF" stroke="#000000" stroke-width="2" cx="-679.721" cy="443.244" r="1.129">
		<title>In16</title>
		</circle>
		<path fill="#FFFFFF" stroke="#000000" stroke-width="0.5" d="M-679.721,444.374c-0.622,0-1.129-0.506-1.129-1.129
			c0-0.624,0.506-1.13,1.129-1.13c0.624,0,1.13,0.506,1.13,1.13C-678.591,443.867-679.097,444.374-679.721,444.374z"/>
	</g>
	<g id="In17" transform="translate(418.2131019951762,-34.913173728602096)">
		<circle fill="#FFFFFF" stroke="#000000" stroke-width="2" cx="-727.583" cy="373.128" r="1.129">
		<title>In17</title>
		</circle>
		<path fill="#FFFFFF" stroke="#000000" stroke-width="0.5" d="M-727.583,374.258c-0.624,0-1.13-0.506-1.13-1.13
			c0-0.622,0.506-1.129,1.13-1.129c0.622,0,1.129,0.506,1.129,1.129C-726.454,373.752-726.96,374.258-727.583,374.258z"/>
	</g>
	<g id="In2" transform="translate(1168.5242448916067,703.8314684996766)">
		<circle fill="#FFFFFF" stroke="#000000" stroke-width="2" cx="-1054.286" cy="51.46" r="1.13">
		<title>In2</title>
		</circle>
		<path fill="#FFFFFF" stroke="#000000" stroke-width="0.5" d="M-1054.286,52.59c-0.624,0-1.132-0.508-1.132-1.129
			c0-0.624,0.508-1.132,1.132-1.132c0.621,0,1.129,0.508,1.129,1.132C-1053.157,52.082-1053.665,52.59-1054.286,52.59z"/>
	</g>
	<g id="In3" transform="translate(1105.4708720550448,649.3535966193541)">
		<circle fill="#FFFFFF" stroke="#000000" stroke-width="2" cx="-1026.833" cy="75.182" r="1.13">
		<title>In3</title>
		</circle>
		<path fill="#FFFFFF" stroke="#000000" stroke-width="0.5" d="M-1026.833,76.312c-0.624,0-1.129-0.508-1.129-1.132
			c0-0.621,0.505-1.129,1.129-1.129c0.624,0,1.129,0.508,1.129,1.129C-1025.704,75.804-1026.209,76.312-1026.833,76.312z"/>
	</g>
	<g id="In0" transform="translate(486.25514688633103,23.18072894050305)">
		<circle fill="#FFFFFF" stroke="#000000" stroke-width="2" cx="-757.211" cy="347.833" r="1.129">
		<title>In0</title>
		</circle>
		<path fill="#FFFFFF" stroke="#000000" stroke-width="0.5" d="M-757.211,348.962c-0.622,0-1.129-0.506-1.129-1.13
			c0-0.623,0.506-1.129,1.129-1.129c0.624,0,1.13,0.506,1.13,1.129C-756.081,348.456-756.587,348.962-757.211,348.962z"/>
	</g>
	<g id="In18" transform="translate(1155.681064376342,-72.09721998768859)">
		<circle fill="#FFFFFF" stroke="#000000" stroke-width="2" cx="-1048.696" cy="389.319" r="1.129">
		<title>In18</title>
		</circle>
		<path fill="#FFFFFF" stroke="#000000" stroke-width="0.5" d="M-1048.696,390.448c-0.621,0-1.129-0.506-1.129-1.13
			c0-0.622,0.508-1.129,1.129-1.129c0.624,0,1.132,0.506,1.132,1.129C-1047.564,389.942-1048.072,390.448-1048.696,390.448z"/>
	</g>
	<g id="In19" transform="translate(931.062069289494,226.2667108258549)">
		<circle fill="#FFFFFF" stroke="#000000" stroke-width="2" cx="-950.889" cy="259.404" r="1.129">
		<title>In19</title>
		</circle>
		<path fill="#FFFFFF" stroke="#000000" stroke-width="0.5" d="M-950.889,260.532c-0.624,0-1.132-0.504-1.132-1.129
			s0.508-1.129,1.132-1.129c0.621,0,1.129,0.504,1.129,1.129S-950.268,260.532-950.889,260.532z"/>
	</g>
	<g id="In20" transform="translate(1099.6149515617938,165.73631086620279)">
		<circle fill="#FFFFFF" stroke="#000000" stroke-width="2" cx="-1024.282" cy="285.76" r="1.129">
		<title>In20</title>
		</circle>
		<path fill="#FFFFFF" stroke="#000000" stroke-width="0.5" d="M-1024.282,286.89c-0.624,0-1.129-0.506-1.129-1.13
			c0-0.623,0.505-1.129,1.129-1.129s1.129,0.506,1.129,1.129C-1023.154,286.384-1023.658,286.89-1024.282,286.89z"/>
	</g>
	<g id="In21" transform="translate(1307.9652965444302,-26.606860262023872)">
		<circle fill="#FFFFFF" stroke="#000000" stroke-width="2" cx="-1115.005" cy="369.511" r="1.129">
		<title>In21</title>
		</circle>
		<path fill="#FFFFFF" stroke="#000000" stroke-width="0.5" d="M-1115.005,370.64c-0.621,0-1.129-0.506-1.129-1.129
			c0-0.624,0.508-1.13,1.129-1.13c0.624,0,1.132,0.506,1.132,1.13C-1113.873,370.134-1114.38,370.64-1115.005,370.64z"/>
	</g>
	<g id="In1" transform="translate(1012.8053020967192,-509.13832774329705)">
		<circle fill="#FFFFFF" stroke="#000000" stroke-width="2" cx="-986.484" cy="579.618" r="1.129">
		<title>In1</title>
		</circle>
		<path fill="#FFFFFF" stroke="#000000" stroke-width="0.5" d="M-986.484,580.747c-0.624,0-1.129-0.506-1.129-1.13
			c0-0.624,0.504-1.129,1.129-1.129s1.129,0.505,1.129,1.129C-985.355,580.241-985.859,580.747-986.484,580.747z"/>
	</g>
	<g id="In6" transform="translate(-233.64244223287344,197.84854437001982)">
		<circle fill="#FFFFFF" stroke="#000000" stroke-width="2" cx="-443.75" cy="271.778" r="1.129">
		<title>In6</title>
		</circle>
		<path fill="#FFFFFF" stroke="#000000" stroke-width="0.5" d="M-443.75,272.906c-0.622,0-1.129-0.505-1.129-1.129
			s0.506-1.129,1.129-1.129c0.624,0,1.13,0.504,1.13,1.129S-443.126,272.906-443.75,272.906z"/>
	</g>
	<g id="In11" transform="translate(1188.4070200517813,1062.592636903903)">
		<circle fill="#FFFFFF" stroke="#000000" stroke-width="2" cx="-1062.945" cy="-104.753" r="1.129">
		<title>In11</title>
		</circle>
		<path fill="#FFFFFF" stroke="#000000" stroke-width="0.5" d="M-1062.945-103.624c-0.624,0-1.129-0.504-1.129-1.129
			s0.505-1.129,1.129-1.129c0.624,0,1.129,0.504,1.129,1.129S-1062.32-103.624-1062.945-103.624z"/>
	</g>
	<g id="In12" transform="translate(1171.0176513609388,1078.794026417667)">
		<circle fill="#FFFFFF" stroke="#000000" stroke-width="2" cx="-1055.373" cy="-111.808" r="1.13">
		<title>In12</title>
		</circle>
		<path fill="#FFFFFF" stroke="#000000" stroke-width="0.5" d="M-1055.373-110.678c-0.624,0-1.129-0.508-1.129-1.129
			c0-0.624,0.504-1.132,1.129-1.132s1.129,0.508,1.129,1.132C-1054.245-111.185-1054.749-110.678-1055.373-110.678z"/>
	</g>
	<g id="In13" transform="translate(-172.03357590548032,762.4636381637731)">
		<circle fill="#FFFFFF" stroke="#000000" stroke-width="2" cx="-470.575" cy="25.93" r="1.129">
		<title>In13</title>
		</circle>
		<path fill="#FFFFFF" stroke="#000000" stroke-width="0.5" d="M-470.575,27.059c-0.624,0-1.13-0.504-1.13-1.129
			s0.506-1.129,1.13-1.129c0.622,0,1.129,0.504,1.129,1.129S-469.952,27.059-470.575,27.059z"/>
	</g>
	<g id="In14" transform="translate(-129.89156235444383,784.0914820051635)">
		<circle fill="#FFFFFF" stroke="#000000" stroke-width="2" cx="-488.924" cy="16.513" r="1.129">
		<title>In14</title>
		</circle>
		<path fill="#FFFFFF" stroke="#000000" stroke-width="0.5" d="M-488.924,17.642c-0.624,0-1.13-0.504-1.13-1.129
			s0.506-1.129,1.13-1.129c0.622,0,1.129,0.505,1.129,1.129S-488.302,17.642-488.924,17.642z"/>
	</g>
	<g id="In9" transform="translate(-85.49414627210356,671.9335338869842)">
		<circle fill="#FFFFFF" stroke="#000000" stroke-width="2" cx="-508.257" cy="65.349" r="1.13">
		<title>In9</title>
		</circle>
		<path fill="#FFFFFF" stroke="#000000" stroke-width="0.5" d="M-508.257,66.479c-0.624,0-1.129-0.508-1.129-1.129
			c0-0.624,0.505-1.132,1.129-1.132c0.624,0,1.129,0.508,1.129,1.132C-507.129,65.972-507.633,66.479-508.257,66.479z"/>
	</g>
	<g id="In10" transform="translate(-62.405073716623036,715.3711168650234)">
		<circle fill="#FFFFFF" stroke="#000000" stroke-width="2" cx="-518.311" cy="46.435" r="1.129">
		<title>In10</title>
		</circle>
		<path fill="#FFFFFF" stroke="#000000" stroke-width="0.5" d="M-518.311,47.564c-0.624,0-1.129-0.505-1.129-1.129
			c0-0.624,0.505-1.129,1.129-1.129c0.624,0,1.13,0.505,1.13,1.129C-517.181,47.059-517.687,47.564-518.311,47.564z"/>
	</g>
	<g id="In7" transform="translate(199.14791524450567,1291.3938227640217)">
		<circle fill="#FFFFFF" stroke="#000000" stroke-width="2" cx="-632.198" cy="-204.378" r="1.129">
		<title>In7</title>
		</circle>
		<path fill="#FFFFFF" stroke="#000000" stroke-width="0.5" d="M-632.198-203.25c-0.622,0-1.129-0.504-1.129-1.129
			c0-0.624,0.506-1.129,1.129-1.129c0.624,0,1.13,0.504,1.13,1.129C-631.067-203.754-631.573-203.25-632.198-203.25z"/>
	</g>
	<g id="In5" transform="translate(84.63281485724464,710.720494648439)">
		<circle fill="#FFFFFF" stroke="#000000" stroke-width="2" cx="-582.335" cy="48.461" r="1.13">
		<title>In5</title>
		</circle>
		<path fill="#FFFFFF" stroke="#000000" stroke-width="0.5" d="M-582.335,49.592c-0.622,0-1.129-0.508-1.129-1.132
			s0.506-1.129,1.129-1.129c0.624,0,1.13,0.504,1.13,1.129S-581.711,49.592-582.335,49.592z"/>
	</g>
	<g id="In4" transform="translate(12.581871490570526,701.9844027561886)">
		<circle fill="#FFFFFF" stroke="#000000" stroke-width="2" cx="-550.962" cy="52.264" r="1.129">
		<title>In4</title>
		</circle>
		<path fill="#FFFFFF" stroke="#000000" stroke-width="0.5" d="M-550.962,53.393c-0.624,0-1.129-0.504-1.129-1.129
			s0.505-1.129,1.129-1.129c0.624,0,1.129,0.504,1.129,1.129S-550.337,53.393-550.962,53.393z"/>
	</g>
	<g id="In8" transform="translate(89.94032857728597,1241.8874081594818)">
		<circle fill="#FFFFFF" stroke="#000000" stroke-width="2" cx="-584.645" cy="-182.821" r="1.129">
		<title>In8</title>
		</circle>
		<path fill="#FFFFFF" stroke="#000000" stroke-width="0.5" d="M-584.645-181.693c-0.624,0-1.13-0.504-1.13-1.129
			c0-0.624,0.506-1.129,1.13-1.129c0.622,0,1.129,0.505,1.129,1.129C-583.516-182.197-584.022-181.693-584.645-181.693z"/>
	</g>
	<g id="In15" transform="translate(28.024452650154522,1125.2804301997298)">
		<circle fill="#FFFFFF" stroke="#000000" stroke-width="2" cx="-557.686" cy="-132.049" r="1.13">
		<title>In15</title>
		</circle>
		<path fill="#FFFFFF" stroke="#000000" stroke-width="0.5" d="M-557.686-130.919c-0.624,0-1.129-0.508-1.129-1.129
			c0-0.624,0.504-1.132,1.129-1.132c0.624,0,1.129,0.508,1.129,1.132C-556.557-131.426-557.062-130.919-557.686-130.919z"/>
	</g>
</g>
<g transform="translate(50,140)">
	<g transform="translate(0,0)">
		<rect x="-27.982" y="131.511" fill="#FFFFFF" stroke="#000000" width="44.291" height="84.122"/>
		<g>
			<g transform="translate(0,0)">
				<rect x="-21.771" y="147.884" fill="#E74C3C" stroke="#000000" width="14.114" height="10.162"/>
				<text transform="matrix(1 0 0 1 -4.8341 155.7876)" font-family="'ArialMT'" font-size="6.7749">AFR</text>
			</g>
			<g transform="translate(0,23)">
				<rect x="-21.771" y="137.869" fill="#2ECC71" stroke="#000000" width="14.114" height="10.162"/>
				<text transform="matrix(1 0 0 1 -4.8341 145.7725)" font-family="'ArialMT'" font-size="6.7749">AMR</text>
			</g>
			<g transform="translate(0,46)">
				<rect x="-21.771" y="127.854" fill="#0000FF" stroke="#000000" width="14.114" height="10.163"/>
				<text transform="matrix(1 0 0 1 -4.8341 135.7578)" font-family="'ArialMT'" font-size="6.7749">EAS</text>
			</g>
			<g transform="translate(0,69)">
				<rect x="-21.771" y="117.839" fill="#039BE5" stroke="#000000" width="14.114" height="10.163"/>
				<text transform="matrix(1 0 0 1 -4.8341 125.7432)" font-family="'ArialMT'" font-size="6.7749">EUR</text>
			</g>
			<g transform="translate(0,92)">
				<rect x="-21.771" y="107.825" fill="#FF00CC" stroke="#000000" width="14.114" height="10.163"/>
				<text transform="matrix(1 0 0 1 -4.8341 115.7285)" font-family="'ArialMT'" font-size="6.7749">SAS</text>
			</g>
			<text transform="matrix(1 0 0 1 -21.7716 143.9316)" font-family="'ArialMT'" font-size="6.7749">Groups</text>
		</g>
	</g>
</g>
</svg>
